<svg id="Ñëîé_1" data-name="Ñëîé 1" xmlns="http://www.w3.org/2000/svg" viewBox="0 0 32.89 82.99"><defs><style>.cls-1{fill:#1d100a;}.cls-2{fill:#120a06;}.cls-3{fill:#292e3b;}.cls-4{fill:#feb990;}.cls-5{fill:#f2fbff;}.cls-6{fill:#272d45;}.cls-7{fill:#f5ac8c;}.cls-8{fill:#21273b;}.cls-9{fill:#2d3442;}.cls-10{fill:#23282e;}.cls-11{fill:#d8e3ed;}.cls-12{fill:#c7c4f2;}.cls-13{fill:#f2b6f0;}.cls-14{fill:#f2e7c9;}.cls-15{fill:#b6c4e3;}.cls-16{fill:#2c3340;}.cls-17{fill:#272c33;}.cls-18{fill:#f2b189;}.cls-19{fill:#f3f0ff;}.cls-20{fill:#2a273d;}.cls-21{fill:#c27161;}.cls-22{fill:#e38b68;}.cls-23{fill:#dd8a5f;}.cls-24{fill:#42261b;}.cls-25{fill:#fff;}.cls-26{fill:#f78a9a;}.cls-27{fill:#ed7984;}.cls-28{fill:#382011;}.cls-29{fill:#422715;}.cls-30{fill:#dfeaf5;}</style></defs><title>hello</title><path class="cls-1" d="M23.44,3.21c-.05,0-.1-1.91-3.28-1.39,0,0-4-.71-5.36,2.19a3.8,3.8,0,0,0,0,1.77,6.22,6.22,0,0,0-.94,2.74c.07,1.09.3,1.42.3,1.87s-.57,1.81-.52,2.19,0,2.58.62,2.29c0,0,.8,1.4,1.72.38a2,2,0,0,0,2.81-.52c.35-.54,2.57-.52,2.57-.52s.29,1.47,1.82.64c0,0,.43,1,1.91.05a.86.86,0,0,0,1.28-.78c-.07,0-.76.82-.92-.45-.07-.66.75-1.06.75-2.17,0,0,.14-.36-.28-1a3,3,0,0,1,0-2.34c.21-.52-.73-1.82-1-2.12Z"/><path class="cls-2" d="M23.2,14.85h0v0h0v0h0v0h0l0,0h0l0,0h0l.05,0h0s0,0,.05,0h0l.06.05h0l.07,0h0l0,0h0l.09,0h0l.1,0h.44a2.06,2.06,0,0,1-.57-.71A2.11,2.11,0,0,1,23.55,13c.11-.34.3-.65.41-1a1.13,1.13,0,0,0-.06-1,1.16,1.16,0,0,0-.66-.4c-1.37-.4-2.81.29-4.24.24-.53,0-2.31-1.8-2.72-1.46s.84,4.12-.83,6.24a1.11,1.11,0,0,0,.55-.36,2.38,2.38,0,0,0,1.8.31,2.27,2.27,0,0,0,1-.83c.35-.54,2.57-.52,2.57-.52a.93.93,0,0,0,0,.13v0a1.08,1.08,0,0,0,.07.18.59.59,0,0,1,0,.08l0,0,0,0,0,0v0l.12.13,0,0A1.4,1.4,0,0,0,22,15h0l.11,0h.19a1.77,1.77,0,0,0,.88-.25Z"/><path class="cls-3" d="M15.17,21.12s.77-1.64-.05-2.44S9.18,15.3,7.78,14.31s-2.12-.72-2.62-.05S4.83,15.65,6,16.5s7.09,5.29,7.09,5.29S14.1,22.56,15.17,21.12Z"/><path class="cls-4" d="M.06,1.37C.12,1.63.45,3.3.45,3.3a9.14,9.14,0,0,0,.76,2.4l1.28-.08c0-.08,0-.22,0-.39a7.64,7.64,0,0,0,.26-1.32,10.71,10.71,0,0,0-.07-1.43C2.58,2,2.51,1.17,2.48,1.09s-.27-.1-.26.58v.41A6.1,6.1,0,0,0,1.48,0c-.12,0-.27,0-.13.36A7.17,7.17,0,0,1,1.64,1.8C1.6,1.71,1.1.18.87.11c0,0-.15,0-.17.07S.86.76.83.82.68.44.57.39.44.62.44.62s.31,2,.28,1.87A8.44,8.44,0,0,0,.12,1C0,.8,0,1.12.06,1.37Z"/><path class="cls-3" d="M5.55,10.36c-.49-.91-1-1.49-1.55-2.55S3.15,5.57,2.78,5A19.74,19.74,0,0,0,.9,6c.58,1.14,1.65,5.27,2.52,6.66S5,15.38,5,15.38s.76,1.67,2.09,1a1.68,1.68,0,0,0,.24-2.48A35.69,35.69,0,0,1,5.55,10.36Z"/><polygon class="cls-5" points="2.72 5.11 2.54 4.78 0.86 5.7 0.98 5.99 2.72 5.11"/><path class="cls-6" d="M19,80.31c-.13,0-1.79.72-1.82.94a2.86,2.86,0,0,0,.07,1.16l3.14-.3A34.35,34.35,0,0,1,22,78.92c.49-.71.79-1.19.72-1.27s-.8-1.64-1.31-1.59S19,80.31,19,80.31Z"/><path class="cls-6" d="M22,81.52c.08,0,.44-.17.44-.17l.21-3.59L21.55,79.1Z"/><path class="cls-7" d="M20.26,75.76A9.16,9.16,0,0,0,19,78.69c-.21.84-.18,1.62-.67,2-.31.22.42.32,1.22,0s1-2,1.84-2.73a2.2,2.2,0,0,0,.77-1.18C21.91,74.49,20.7,75.3,20.26,75.76Z"/><path class="cls-7" d="M16.93,39.12c-1.29,0-2.95,1.07-2.9,2.39s.1,7.42,1.57,11.58a27.37,27.37,0,0,1,1.69,7.2c.23,1.58,3.38,3.14,3.65-.94,0-3-.25-16-.25-16S21.05,39.19,16.93,39.12Z"/><path class="cls-7" d="M19,57.25a2,2,0,0,0-1.76,2.09c.11,1.79.47,5.8,1,8.6S20,74.25,19.92,76c-.09,1.27.55,1.68,1.19,1.41s1-.23.92-2.07.51-6.93.4-8.81S21,59.58,21,59.09A1.69,1.69,0,0,0,19,57.25Z"/><path class="cls-8" d="M22,80c-.21.33-1.5,1.88-1.57,2s0,1.07.32,1.07a23.67,23.67,0,0,0,3.61-1c.07-.15-.08-2.46.07-2.92a22.15,22.15,0,0,0,.66-2.69c0-.25-.76-.7-1.21-.73s-1,.59-1.06.64S22,80,22,80Z"/><path class="cls-8" d="M24.86,81.49c.05,0,.47,0,.45-.13s-.21-5-.21-5l-.77,1.15Z"/><path class="cls-4" d="M22.3,74.79a2.31,2.31,0,0,0-.66,1.65c-.18,1.67.29,3.74-.1,4.36-.05.15.57.65,1.2.31.21-.12.44-.28.72-.48,0-.41.78-4.87.66-4.87a1,1,0,0,1-.75-.7C23.25,74.59,22.53,74.64,22.3,74.79Z"/><path class="cls-4" d="M18.76,57.91c-1.21.61-1.35,1.85-.68,3.42a32.11,32.11,0,0,1,1.7,5.29c.27,1.32,1.18,5.1,1.4,6.54s.35,3.67.35,3.67.61,1.27,1.5.39.54-1.62.54-1.62a5.37,5.37,0,0,1-.27-2.36,54.34,54.34,0,0,0,.34-7.71,31,31,0,0,0-1.75-6C21.68,59,20.23,57.17,18.76,57.91Z"/><path class="cls-4" d="M19,43.72A58.17,58.17,0,0,0,17.82,53c-.09,4.25-.31,6.17-.26,6.61s.17,2.46,1.64,2.54a2.64,2.64,0,0,0,3-2.51A31.39,31.39,0,0,1,24,51.82a32.69,32.69,0,0,0,2.36-9.7c0-2.27-2.46-3.14-3.84-3S19.5,40.87,19,43.72Z"/><path class="cls-9" d="M23.47,32.78h-9.1c-.15.41-.57,2.19-.7,2.94A58.16,58.16,0,0,0,13,41.78c.25,8.2,2.38,12.29,3.16,18.34L23.1,60C24.26,49.46,26.61,47.85,26.61,41,26.61,37.15,24,33.82,23.47,32.78Z"/><path class="cls-10" d="M13.23,39c-.12,1.14-.2,2.14-.22,2.61,1.25-.09,3.53-.09,3.53-.09s6.45.18,10.05.41c0-.29,0-.58,0-.89a9.92,9.92,0,0,0-.22-2l-9-.8Z"/><path class="cls-11" d="M18.1,15.74A8.49,8.49,0,0,1,19.88,15a10.32,10.32,0,0,0,1.89.12l.29,1.44L19.37,18.4,17.24,18Z"/><path class="cls-4" d="M22.53,26.11V16.93a1.21,1.21,0,0,1-.73-1.15,20.09,20.09,0,0,1,.1-2.65s-.27-1.91-1.74-1.91a2.14,2.14,0,0,0-2.37,2.09s.6,3,.15,3.64a7.56,7.56,0,0,1-2.15,1.42v7.74Z"/><path class="cls-7" d="M16.81,17.92a8.61,8.61,0,0,0,1.06,1L18,17.35s.24-1.48,1.13-1.5,1.71-.26,1.77.13a9.56,9.56,0,0,1-1,3.12c-.53,1.25,1-.67,1-.67a20.15,20.15,0,0,0,1-2.13,8.69,8.69,0,0,1,0-3.59,14.82,14.82,0,0,1,.29-1.48s-1.76.19-2.57.19c0,0-1.89,1-1.89,1.69s.72,3.44,0,4a4.71,4.71,0,0,1-1,.53C16.78,17.81,16.81,17.9,16.81,17.92Z"/><path class="cls-7" d="M24.29,19.32c-.08,0-4.75-.14-4.75-.14l.83-.12h3Z"/><path class="cls-7" d="M18.17,19c0,.05.3.47.46.47s.5-.42.5-.42l-.49.2Z"/><path class="cls-7" d="M15.56,19.09l2.44.05L17.41,19l-1.85-.12Z"/><path class="cls-12" d="M18,16.45a.16.16,0,0,1-.16.13.11.11,0,0,1-.12-.13.18.18,0,0,1,.16-.14A.12.12,0,0,1,18,16.45Z"/><path class="cls-13" d="M17.94,16.45a.15.15,0,0,1-.15.13.1.1,0,0,1-.1-.13.15.15,0,0,1,.14-.13A.11.11,0,0,1,17.94,16.45Z"/><path class="cls-14" d="M17.92,16.46a.12.12,0,0,1-.12.11.09.09,0,0,1-.08-.11.11.11,0,0,1,.12-.1A.08.08,0,0,1,17.92,16.46Z"/><path class="cls-12" d="M18,16.68a.16.16,0,0,1-.16.14.12.12,0,0,1-.12-.14.18.18,0,0,1,.16-.13A.11.11,0,0,1,18,16.68Z"/><path class="cls-13" d="M18,16.69a.15.15,0,0,1-.14.13.1.1,0,0,1-.11-.13.15.15,0,0,1,.15-.13A.1.1,0,0,1,18,16.69Z"/><path class="cls-14" d="M18,16.7a.11.11,0,0,1-.12.1.08.08,0,0,1-.08-.1.12.12,0,0,1,.12-.11A.09.09,0,0,1,18,16.7Z"/><path class="cls-12" d="M18.15,16.91A.16.16,0,0,1,18,17a.11.11,0,0,1-.11-.13.16.16,0,0,1,.16-.14A.11.11,0,0,1,18.15,16.91Z"/><path class="cls-13" d="M18.15,16.91A.15.15,0,0,1,18,17a.11.11,0,0,1-.11-.13.15.15,0,0,1,.15-.12A.1.1,0,0,1,18.15,16.91Z"/><path class="cls-14" d="M18.13,16.92A.13.13,0,0,1,18,17a.09.09,0,0,1-.09-.11.13.13,0,0,1,.12-.1A.09.09,0,0,1,18.13,16.92Z"/><path class="cls-12" d="M18.33,17.08a.17.17,0,0,1-.15.14.12.12,0,0,1-.12-.14.16.16,0,0,1,.16-.14A.11.11,0,0,1,18.33,17.08Z"/><path class="cls-13" d="M18.33,17.09a.15.15,0,0,1-.15.12.1.1,0,0,1-.11-.12.15.15,0,0,1,.15-.13A.11.11,0,0,1,18.33,17.09Z"/><path class="cls-14" d="M18.31,17.09a.13.13,0,0,1-.12.11.09.09,0,0,1-.09-.11.13.13,0,0,1,.12-.1A.09.09,0,0,1,18.31,17.09Z"/><path class="cls-12" d="M18.53,17.23a.18.18,0,0,1-.16.14.12.12,0,0,1-.12-.14.16.16,0,0,1,.16-.13A.11.11,0,0,1,18.53,17.23Z"/><path class="cls-13" d="M18.52,17.24a.16.16,0,0,1-.15.13.11.11,0,0,1-.11-.13.16.16,0,0,1,.15-.13A.11.11,0,0,1,18.52,17.24Z"/><path class="cls-14" d="M18.5,17.25a.13.13,0,0,1-.12.1.09.09,0,0,1-.09-.1.14.14,0,0,1,.12-.11A.09.09,0,0,1,18.5,17.25Z"/><path class="cls-12" d="M18.72,17.35a.17.17,0,0,1-.15.14.12.12,0,0,1-.12-.14.16.16,0,0,1,.16-.14A.11.11,0,0,1,18.72,17.35Z"/><path class="cls-13" d="M18.72,17.36a.15.15,0,0,1-.15.12.1.1,0,0,1-.11-.12.15.15,0,0,1,.15-.13A.11.11,0,0,1,18.72,17.36Z"/><path class="cls-14" d="M18.7,17.36a.13.13,0,0,1-.12.11.09.09,0,0,1-.09-.11.13.13,0,0,1,.12-.1A.09.09,0,0,1,18.7,17.36Z"/><path class="cls-12" d="M19,17.46a.16.16,0,0,1-.16.13.11.11,0,0,1-.11-.13.16.16,0,0,1,.16-.14A.11.11,0,0,1,19,17.46Z"/><path class="cls-13" d="M19,17.46a.16.16,0,0,1-.15.13.11.11,0,0,1-.11-.13.16.16,0,0,1,.15-.13A.11.11,0,0,1,19,17.46Z"/><path class="cls-14" d="M18.93,17.47a.13.13,0,0,1-.12.11.09.09,0,0,1-.09-.11.12.12,0,0,1,.12-.1A.08.08,0,0,1,18.93,17.47Z"/><path class="cls-12" d="M19.22,17.51a.18.18,0,0,1-.16.14.12.12,0,0,1-.12-.14.17.17,0,0,1,.16-.13A.11.11,0,0,1,19.22,17.51Z"/><path class="cls-13" d="M19.21,17.52a.16.16,0,0,1-.15.13.11.11,0,0,1-.11-.13.16.16,0,0,1,.15-.13A.11.11,0,0,1,19.21,17.52Z"/><path class="cls-14" d="M19.19,17.53a.13.13,0,0,1-.12.1.09.09,0,0,1-.09-.1.14.14,0,0,1,.12-.11A.09.09,0,0,1,19.19,17.53Z"/><path class="cls-12" d="M19.46,17.53a.17.17,0,0,1-.16.14.12.12,0,0,1-.12-.14.18.18,0,0,1,.16-.14A.12.12,0,0,1,19.46,17.53Z"/><path class="cls-13" d="M19.45,17.54a.14.14,0,0,1-.15.12.09.09,0,0,1-.1-.12.14.14,0,0,1,.14-.13C19.42,17.41,19.47,17.46,19.45,17.54Z"/><path class="cls-14" d="M19.43,17.54a.12.12,0,0,1-.12.11.09.09,0,0,1-.08-.11.12.12,0,0,1,.12-.1A.08.08,0,0,1,19.43,17.54Z"/><path class="cls-12" d="M19.7,17.54a.16.16,0,0,1-.16.13.11.11,0,0,1-.11-.13.16.16,0,0,1,.16-.14A.11.11,0,0,1,19.7,17.54Z"/><path class="cls-13" d="M19.7,17.54a.15.15,0,0,1-.15.13.11.11,0,0,1-.11-.13.15.15,0,0,1,.15-.12A.1.1,0,0,1,19.7,17.54Z"/><path class="cls-14" d="M19.68,17.55a.14.14,0,0,1-.12.11.09.09,0,0,1-.09-.11.13.13,0,0,1,.12-.1A.09.09,0,0,1,19.68,17.55Z"/><path class="cls-12" d="M21.56,16.45a.11.11,0,0,0,.11.13.16.16,0,0,0,.16-.13.11.11,0,0,0-.11-.14A.16.16,0,0,0,21.56,16.45Z"/><path class="cls-13" d="M21.56,16.45a.11.11,0,0,0,.11.13.16.16,0,0,0,.15-.13.11.11,0,0,0-.11-.13A.16.16,0,0,0,21.56,16.45Z"/><path class="cls-14" d="M21.58,16.46a.09.09,0,0,0,.09.11.14.14,0,0,0,.12-.11.08.08,0,0,0-.09-.1A.12.12,0,0,0,21.58,16.46Z"/><path class="cls-12" d="M21.42,16.68a.11.11,0,0,0,.11.14.16.16,0,0,0,.16-.14.11.11,0,0,0-.12-.13A.16.16,0,0,0,21.42,16.68Z"/><path class="cls-13" d="M21.42,16.69a.11.11,0,0,0,.11.13.17.17,0,0,0,.15-.13.11.11,0,0,0-.11-.13A.16.16,0,0,0,21.42,16.69Z"/><path class="cls-14" d="M21.43,16.7a.09.09,0,0,0,.09.1.12.12,0,0,0,.12-.1.09.09,0,0,0-.09-.11A.14.14,0,0,0,21.43,16.7Z"/><path class="cls-12" d="M21.21,16.91a.11.11,0,0,0,.12.13.16.16,0,0,0,.15-.13.11.11,0,0,0-.11-.14A.16.16,0,0,0,21.21,16.91Z"/><path class="cls-13" d="M21.21,16.91a.11.11,0,0,0,.11.13.15.15,0,0,0,.15-.13.1.1,0,0,0-.11-.12A.15.15,0,0,0,21.21,16.91Z"/><path class="cls-14" d="M21.23,16.92a.09.09,0,0,0,.09.11.13.13,0,0,0,.12-.11.09.09,0,0,0-.09-.1A.13.13,0,0,0,21.23,16.92Z"/><path class="cls-12" d="M21,17.08a.12.12,0,0,0,.11.14.17.17,0,0,0,.16-.14.11.11,0,0,0-.11-.14A.16.16,0,0,0,21,17.08Z"/><path class="cls-13" d="M21,17.09a.1.1,0,0,0,.11.12.15.15,0,0,0,.15-.12.11.11,0,0,0-.11-.13A.15.15,0,0,0,21,17.09Z"/><path class="cls-14" d="M21,17.09a.09.09,0,0,0,.08.11.14.14,0,0,0,.13-.11.1.1,0,0,0-.09-.1A.13.13,0,0,0,21,17.09Z"/><path class="cls-12" d="M20.74,17.23a.11.11,0,0,0,.11.14.16.16,0,0,0,.16-.14.11.11,0,0,0-.12-.13A.16.16,0,0,0,20.74,17.23Z"/><path class="cls-13" d="M20.74,17.24a.11.11,0,0,0,.11.13.16.16,0,0,0,.15-.13.11.11,0,0,0-.11-.13A.16.16,0,0,0,20.74,17.24Z"/><path class="cls-14" d="M20.76,17.25a.08.08,0,0,0,.08.1.14.14,0,0,0,.13-.1.1.1,0,0,0-.09-.11A.13.13,0,0,0,20.76,17.25Z"/><path class="cls-12" d="M20.5,17.35a.12.12,0,0,0,.12.14.19.19,0,0,0,.16-.14.12.12,0,0,0-.12-.14A.16.16,0,0,0,20.5,17.35Z"/><path class="cls-13" d="M20.5,17.36a.1.1,0,0,0,.11.12.14.14,0,0,0,.15-.12.1.1,0,0,0-.11-.13A.16.16,0,0,0,20.5,17.36Z"/><path class="cls-14" d="M20.52,17.36a.09.09,0,0,0,.09.11.13.13,0,0,0,.12-.11.09.09,0,0,0-.09-.1A.13.13,0,0,0,20.52,17.36Z"/><path class="cls-12" d="M20.24,17.46a.11.11,0,0,0,.12.13.16.16,0,0,0,.15-.13.11.11,0,0,0-.11-.14A.16.16,0,0,0,20.24,17.46Z"/><path class="cls-13" d="M20.24,17.46a.11.11,0,0,0,.11.13.16.16,0,0,0,.15-.13.11.11,0,0,0-.11-.13A.16.16,0,0,0,20.24,17.46Z"/><path class="cls-14" d="M20.26,17.47a.09.09,0,0,0,.09.11.13.13,0,0,0,.12-.11.08.08,0,0,0-.09-.1A.12.12,0,0,0,20.26,17.47Z"/><path class="cls-12" d="M20,17.51a.12.12,0,0,0,.12.14.16.16,0,0,0,.15-.14.11.11,0,0,0-.11-.13A.16.16,0,0,0,20,17.51Z"/><path class="cls-13" d="M20,17.52a.11.11,0,0,0,.11.13.16.16,0,0,0,.15-.13.11.11,0,0,0-.11-.13A.16.16,0,0,0,20,17.52Z"/><path class="cls-14" d="M20,17.53a.09.09,0,0,0,.09.1.14.14,0,0,0,.12-.1.09.09,0,0,0-.09-.11A.13.13,0,0,0,20,17.53Z"/><path class="cls-12" d="M19.71,17.53a.12.12,0,0,0,.12.14.19.19,0,0,0,.16-.14.12.12,0,0,0-.12-.14A.16.16,0,0,0,19.71,17.53Z"/><path class="cls-13" d="M19.71,17.54a.1.1,0,0,0,.11.12.14.14,0,0,0,.15-.12.1.1,0,0,0-.11-.13A.16.16,0,0,0,19.71,17.54Z"/><path class="cls-14" d="M19.73,17.54a.09.09,0,0,0,.09.11.13.13,0,0,0,.12-.11.09.09,0,0,0-.09-.1A.13.13,0,0,0,19.73,17.54Z"/><path class="cls-11" d="M22.53,16.93a1.17,1.17,0,0,1-.63-.67,29.15,29.15,0,0,1-3.74,3.6c-.18.06-.44-1.74-.3-2.82a8.88,8.88,0,0,1-2.07,1.33v7.74h3.29l1.21-.19,2.23-2.56Z"/><path class="cls-15" d="M18.35,19.86c0-.05,2.24-1.88,2.24-1.88l.67,1.1S19.79,20.9,19.77,21s-1.45,1.72-1.67,1.47c0,0,2.47-3.58,2.29-3.47S18.35,19.86,18.35,19.86Z"/><path class="cls-15" d="M16.71,22.13s.57-2.88.62-2.88a8.28,8.28,0,0,1,.59.61l-.33-2-.57.72-.15.92Z"/><path class="cls-15" d="M17.92,19.86c-.05.08-.31,1.81-.31,1.81s-1.07,2.72-1.09,2.61.82-2.59.84-2.65Z"/><path class="cls-16" d="M12.59,40.9s3.64,0,3.64,0l.62-2,.69,2s8.12.29,9.24,0C26.37,33.47,23,32.52,23,30.42c0-1,1.86-5.07,3.81-7,.71-1.56,0-4.61-.89-5.08s-2.86-.71-3.34-1.59a47.31,47.31,0,0,1-6,7.56s0-2.64.09-3.72a22.5,22.5,0,0,1,.91-3.36,21.1,21.1,0,0,1-2.81,1.26A25.69,25.69,0,0,1,13.49,22c-.6.81-1.24,1.05-1.25,2.67,0,.5.84,1.55,1.51,2.36a31.63,31.63,0,0,1,.43,4.33C14.18,33.06,12.3,34.66,12.59,40.9Z"/><path class="cls-17" d="M15.79,27.74s.36,3.24.35,4.21c0,1.36.47,6.3.47,6.3.1.34-1-5.47-1.09-6.86A18.13,18.13,0,0,1,15.79,27.74Z"/><path class="cls-3" d="M21.06,20.2l1.09.29,1.31-3.13c-.35-.18-1-1-1.41-1.05a36,36,0,0,1-5.43,7.86s.2-2.56.25-3.65a40.56,40.56,0,0,1,.91-4c-.33.21-.86,1.21-1.41,1.42l-.66,1.67.44.39-.75.59L15.93,26l5.86-4.71Z"/><path class="cls-17" d="M21.39,27.15c1.44-.42,1.74-2.37.88-2.93a3.07,3.07,0,0,1-2.71,1.54,19,19,0,0,1-6-.43,3.39,3.39,0,0,1-1.36-.64c0,.5.84,1.55,1.51,2.36A63.42,63.42,0,0,0,21.39,27.15Z"/><path class="cls-3" d="M24.29,19.67s-.89,1.49-.29,2.08c1.44,1.45,5.65,6,5.91,6.24a2.45,2.45,0,0,0,2.46-.08c.78-.67-.38-2.15-.38-2.15s-3.32-4.83-4.81-6.71a5.77,5.77,0,0,0-1.63-.89C25.24,18,24.89,18.84,24.29,19.67Z"/><path class="cls-4" d="M27.4,35.69c-.09,0-2.16-1.51-2.16-1.51A6,6,0,0,0,24,33.8a3.13,3.13,0,0,0-1.48.33c-.12.14.11.21.21.22s1.32-.25,1.82,0c.13.07.26.24.2.23s-2-.08-2.38.35c-.22.19.41.29.41.29s-.28.46.31.46,1.81,0,1.81,0l.06.17a10,10,0,0,0-1.42.34c-.43.17-.11.36-.11.36a8.6,8.6,0,0,1,1.51-.07,12.71,12.71,0,0,0,1.55.66c.54.15,1.24.35,1.63,0S27.4,35.69,27.4,35.69Z"/><path class="cls-4" d="M28.47,33.31a9.2,9.2,0,0,1-.9,2.17c-.42.58-.63,1.23-.29,1.61s1,.12,1.57-.52a25.85,25.85,0,0,0,1.82-3.26Z"/><path class="cls-3" d="M31.67,26c-1-.31-1.81.89-1.85,1.13-.28,1.87-1.76,7.62-2.42,8.45l1.68,1.23c.6-.61,3.56-6.74,3.8-8.57A2.08,2.08,0,0,0,31.67,26Z"/><polygon class="cls-5" points="27.48 35.42 27.63 35.29 29.1 36.34 28.92 36.61 27.48 35.42"/><path class="cls-18" d="M22.92,9.6l-.15,1.87a.4.4,0,0,0,.05.29.26.26,0,0,0,.31,0,.75.75,0,0,0,.24-.23A3.2,3.2,0,0,0,23.89,10a1,1,0,0,0-.16-.71.47.47,0,0,0-.66-.1A.78.78,0,0,0,22.92,9.6Z"/><path class="cls-4" d="M19.19,3.89c-.23,0-2.65.23-3,1.51a19.46,19.46,0,0,0,.14,5.79c.18.79.73,2.86,2.15,3.71a2.59,2.59,0,0,0,1.26.47,2.34,2.34,0,0,0,1.37-.53,7.38,7.38,0,0,0,1.93-3.93,20,20,0,0,0-.23-5.77c-.44-1.25-2.87-1.32-3.1-1.27Z"/><path class="cls-19" d="M20.91,8.91c0,.09-.06.56.11.74l1,.1a.77.77,0,0,0,.54-.23c.16-.22.14-.51.1-.51a7.09,7.09,0,0,0-.71-.44c-.07,0-.71.12-.75.14Z"/><path class="cls-20" d="M22.3,9.25a.55.55,0,0,1-.21.44.51.51,0,0,1-.35.07.54.54,0,0,1-.38-.08.58.58,0,0,1-.2-.43.57.57,0,0,1,.57-.57A.56.56,0,0,1,22.3,9.25Z"/><path class="cls-21" d="M20.59,9.63a1.78,1.78,0,0,1,.35-1,3.46,3.46,0,0,1,1.4-.23,3.34,3.34,0,0,1,.53.76c0,.09-.2,0-.2,0a.89.89,0,0,0-.85-.29c-.58.08-.77.14-.86.25S20.59,9.63,20.59,9.63Z"/><path class="cls-22" d="M20.6,9.66A3,3,0,0,1,21,9.61a4.19,4.19,0,0,0,.85.11c.25,0,.71,0,.82-.53,0,0,.08.05.08.05a.75.75,0,0,1-.85.59A4.41,4.41,0,0,1,21,9.67Z"/><path class="cls-2" d="M20.6,9.66s.42-.51.59-.58a2.21,2.21,0,0,1,1.09,0c.29.1.42.38.78.2a1.42,1.42,0,0,1-.59-.39,2.16,2.16,0,0,0-1.4,0A2,2,0,0,0,20.6,9.66Z"/><path class="cls-19" d="M18.33,8.91c0,.09.07.56-.11.74l-1,.1a.78.78,0,0,1-.54-.23c-.16-.22-.14-.51-.1-.51a7.09,7.09,0,0,1,.71-.44c.08,0,.72.12.76.14Z"/><path class="cls-20" d="M16.94,9.25a.56.56,0,0,0,.22.44.49.49,0,0,0,.34.07.57.57,0,0,0,.39-.08.57.57,0,0,0,.19-.43.56.56,0,0,0-.57-.57A.57.57,0,0,0,16.94,9.25Z"/><path class="cls-21" d="M18.65,9.63a1.7,1.7,0,0,0-.35-1,3.46,3.46,0,0,0-1.4-.23,3.3,3.3,0,0,0-.52.76c0,.09.19,0,.19,0a.9.9,0,0,1,.86-.29c.57.08.76.14.86.25S18.65,9.63,18.65,9.63Z"/><path class="cls-22" d="M18.64,9.66a3,3,0,0,0-.38-.05,4.07,4.07,0,0,1-.84.11c-.26,0-.72,0-.82-.53,0,0-.09.05-.09.05a.76.76,0,0,0,.85.59,4.41,4.41,0,0,0,.91-.16Z"/><path class="cls-2" d="M18.64,9.66s-.42-.51-.58-.58a2.25,2.25,0,0,0-1.1,0c-.28.1-.42.38-.77.2a1.42,1.42,0,0,0,.59-.39,2.17,2.17,0,0,1,1.4,0A2,2,0,0,1,18.64,9.66Z"/><path class="cls-2" d="M18.55,7.87s-.1.36-.21.34a4.82,4.82,0,0,0-1.62-.48,2.27,2.27,0,0,0-1.14.54s.56-.84,1.18-.84A7.36,7.36,0,0,1,18.55,7.87Z"/><path class="cls-2" d="M20.49,7.87s.1.36.21.34a4.74,4.74,0,0,1,1.62-.48,2.32,2.32,0,0,1,1.14.54s-.57-.84-1.18-.84A7.22,7.22,0,0,0,20.49,7.87Z"/><path class="cls-23" d="M18.93,8.39l0,0,0,.08c0,.07.07.18.11.3s0,.13.06.21l.06.23a1.84,1.84,0,0,1,.05.25,2,2,0,0,1,.05.26,2.28,2.28,0,0,1,0,.26,2.26,2.26,0,0,1,0,.26v.12s0,.08,0,.12,0,.15,0,.21-.07.24-.1.31l0,.08v0l0-.12c0-.07,0-.18,0-.31a1.49,1.49,0,0,0,0-.21.41.41,0,0,0,0-.11v-.12l0-.25,0-.25a2,2,0,0,0,0-.26l0-.25,0-.23,0-.21L19,8.51a.64.64,0,0,0,0-.09A0,0,0,0,0,18.93,8.39Z"/><path class="cls-23" d="M19,11.7H19l.16.07a1.1,1.1,0,0,1,.23.13l0,0h0l0,0h0l.12,0a.5.5,0,0,0,.24-.06.28.28,0,0,0,.09-.07l.1-.07.15-.09.05,0h0l0,0-.12.12-.08.09L20,12a.16.16,0,0,1-.06,0l-.14.07-.16,0a.32.32,0,0,1-.16,0,.13.13,0,0,1-.07-.05h0l0,0-.09-.09-.09-.07-.14-.1Z"/><path class="cls-23" d="M19,11.29l0,0a.93.93,0,0,1-.05.1s-.05.08-.07.13a.25.25,0,0,0,0,.07.2.2,0,0,0,0,.07h0v0h0v0h0l0,0,.06,0,.06,0,.09.06,0,0h-.15a.46.46,0,0,1-.16-.06s0,0,0,0l0,0,0,0h0v-.08l0-.11,0,0a.08.08,0,0,1,0,0l.06-.07.05,0,.09-.07Z"/><path class="cls-23" d="M20.4,11.35l0,0a.28.28,0,0,1,.09.07.28.28,0,0,1,.1.15.3.3,0,0,1,0,.1v0h0v0l0,0a.26.26,0,0,1-.07.1l-.09,0a.58.58,0,0,1-.16.05h-.14l0,0,0,0,.05,0,.14-.08.06,0,0,0v0h0v0h0v0a.15.15,0,0,0,0-.07.57.57,0,0,0,0-.14.35.35,0,0,0-.06-.09Z"/><path class="cls-24" d="M19.82,12.83l-1.7-.1s.55,1.28,1.65,1.18a2.08,2.08,0,0,0,1.57-1.27A3.93,3.93,0,0,0,19.82,12.83Z"/><path class="cls-25" d="M18.69,13.38s-.05-.54,0-.53.76.07,1.15.05l1-.05,0,.54s-.19.47-1.08.42S18.69,13.38,18.69,13.38Z"/><path class="cls-26" d="M17.83,12.66s.78,1.66,2,1.62,1.81-1.77,1.81-1.77l-.41.11s-.57,1.1-1.5,1.08a2.05,2.05,0,0,1-1.51-.94Z"/><path class="cls-27" d="M17.83,12.66a3.06,3.06,0,0,0,1.38.32,1,1,0,0,0,.95,0,3.61,3.61,0,0,0,1.48-.48,7.8,7.8,0,0,0-1.46-.09,1.62,1.62,0,0,0-.41.35,1,1,0,0,0-.59-.31C18.88,12.46,17.83,12.66,17.83,12.66Z"/><path class="cls-1" d="M25.94,10.46a3.49,3.49,0,0,1-.08-2.29,4.82,4.82,0,0,0-.78-2.35c-.08-.17-.12-2-1.64-2.61A.92.92,0,0,1,23.39,3l-.27,0a1.57,1.57,0,0,0-.72.63A2,2,0,0,0,22,5.4a2.11,2.11,0,0,1,1,1.26c.3,1.12-.35,2.38.11,3.45a6.92,6.92,0,0,1,.69,1.32c.14.78-.52,1.47-.69,2.24a1.91,1.91,0,0,0,.13,1.2l0,0s.43,1,1.91.05a.86.86,0,0,0,1.28-.78c-.07,0-.76.82-.92-.45-.07-.66.82-1.07.82-2.18A1.63,1.63,0,0,0,25.94,10.46Z"/><path class="cls-28" d="M15.39,6.16l-.09-.1c-.61.34-.33,1.43-.56,2.05A2.88,2.88,0,0,0,14.63,10a4,4,0,0,0,.27.59c.08.17.17.35.24.52a3.72,3.72,0,0,1-.56,3l-.08.14a3.61,3.61,0,0,0-.33.65l.11-.05,0,0a4.56,4.56,0,0,1,.3-.58,1,1,0,0,0,.08-.14,3.86,3.86,0,0,0,.57-3.12,5.29,5.29,0,0,0-.25-.54,4.94,4.94,0,0,1-.26-.57,2.86,2.86,0,0,1,.1-1.81C15.08,7.55,14.79,6.48,15.39,6.16Z"/><path class="cls-28" d="M25.2,14.46a.07.07,0,0,0-.08,0,.26.26,0,0,1-.18.17.37.37,0,0,1-.31,0,.54.54,0,0,1-.22-.56,1.27,1.27,0,0,1,.3-.59l.17-.19a3.17,3.17,0,0,0,.29-.35A1.94,1.94,0,0,0,25,10.62l-.22-.22a1.16,1.16,0,0,1-.46-.7A1.19,1.19,0,0,1,24.68,9a3.53,3.53,0,0,0,.21-.32,2,2,0,0,0,0-1.67A5.15,5.15,0,0,0,24,5.57c-.44-.5-.9-1-1.38-1.45l-.09.09q.72.69,1.38,1.44A4.9,4.9,0,0,1,24.81,7a1.81,1.81,0,0,1,0,1.55,2.2,2.2,0,0,1-.21.32,1.31,1.31,0,0,0-.34.83,1.33,1.33,0,0,0,.5.78l.22.22a1.82,1.82,0,0,1,.12,2.17,2.88,2.88,0,0,1-.28.33c-.06.07-.12.13-.17.2a1.32,1.32,0,0,0-.34.65.69.69,0,0,0,.28.69.53.53,0,0,0,.43,0l.07,0a1,1,0,0,1-.22.31l.27-.16h0a.82.82,0,0,0,.13-.37A.07.07,0,0,0,25.2,14.46Z"/><path class="cls-1" d="M23.43,3.18c-.06-.23-.32-1.84-3.27-1.36,0,0-4-.71-5.36,2.19a3.69,3.69,0,0,0,0,1.74l0,.07c0,.4.09,1.16.6,1.38a2,2,0,0,0-.16.59.67.67,0,0,0,.18.56,1,1,0,0,0,.66.21,2.89,2.89,0,0,0,1.73-.22c.55-.34.85-.75,1.35-1.08s1.39-.44,2-.77A4.63,4.63,0,0,0,23.43,3.18Z"/><path class="cls-28" d="M22.94,3.63a2.84,2.84,0,0,0-1.41.53,5.64,5.64,0,0,1-.69.36,4.62,4.62,0,0,1-1.76.29h-.34a8.2,8.2,0,0,0-1.48.11,2.6,2.6,0,0,0-1.59.87,1.62,1.62,0,0,0-.33,1.34s.09.07.11.06a1.65,1.65,0,0,1,.31-1.32,2.58,2.58,0,0,1,1.53-.83A7.8,7.8,0,0,1,18.74,5h.34a4.92,4.92,0,0,0,1.81-.3,6.85,6.85,0,0,0,.71-.37,3.11,3.11,0,0,1,1.21-.51h.49a.65.65,0,0,0,0-.13Z"/><path class="cls-28" d="M23.25,2.68a2.84,2.84,0,0,0-.64,0,2.6,2.6,0,0,0-1.07.39l-.21.12a4.59,4.59,0,0,1-.77.38,4.4,4.4,0,0,1-1.92.11,5.86,5.86,0,0,0-1.62,0,3,3,0,0,0-1.84,1.17,2.85,2.85,0,0,0-.39.78,1,1,0,0,1,0,.12l0,.07v0A2.8,2.8,0,0,1,17,3.8a5.64,5.64,0,0,1,1.59,0,4.67,4.67,0,0,0,2-.12,5.27,5.27,0,0,0,.79-.39l.21-.12a2.55,2.55,0,0,1,1-.37,2,2,0,0,1,.7,0Z"/><path class="cls-28" d="M19.77,2a7.12,7.12,0,0,1-1.18.48c-.22,0-.45.08-.68.11a7.14,7.14,0,0,0-.78.15,4.18,4.18,0,0,0-2.41,1.65,2.75,2.75,0,0,0,0,.4,3.63,3.63,0,0,1,2.47-1.93,4.85,4.85,0,0,1,.76-.14,5.54,5.54,0,0,0,.69-.12,7.09,7.09,0,0,0,1.21-.48c.23-.12.47-.23.71-.33l-.17,0h0l-.17,0h-.05Z"/><polygon class="cls-29" points="21.59 1.75 21.58 1.75 21.58 1.75 21.59 1.75"/><path class="cls-28" d="M23.12,4.27a3,3,0,0,0-1.25.55,5.17,5.17,0,0,1-.58.33,5.68,5.68,0,0,1-1.09.31,4.1,4.1,0,0,0-1.56.59,3.77,3.77,0,0,0-.46.43,3,3,0,0,1-.61.52,2.85,2.85,0,0,1-.87.27h0a2.64,2.64,0,0,0-.92.31,1.13,1.13,0,0,0-.45.5,1.3,1.3,0,0,0,.08.17,1,1,0,0,1,.44-.57,3,3,0,0,1,.88-.29h0a3.22,3.22,0,0,0,.91-.29,3.05,3.05,0,0,0,.64-.54,3.48,3.48,0,0,1,.44-.42,3.86,3.86,0,0,1,1.52-.56,6.12,6.12,0,0,0,1.11-.32,6.35,6.35,0,0,0,.6-.34,3.18,3.18,0,0,1,1.12-.53Z"/><path class="cls-1" d="M15.28,9.37a.63.63,0,0,1,0-.61,1.23,1.23,0,0,1,.37-.58,2,2,0,0,1,.94-.35.83.83,0,0,1,.35,0,.29.29,0,0,1,.2.26c-.21,0,0,.14-.14.31s-.31.06-.66.4S16.22,9.91,16,10,15.42,9.53,15.28,9.37Z"/><path class="cls-1" d="M15.87,8.81a12.46,12.46,0,0,1,.59,2.39c0,.46,0,2.87-.53,3.44s-.74-.25-.74-.25a6.14,6.14,0,0,0,.68-2.75,11.64,11.64,0,0,0-.68-2.34C15,9,15.78,8.68,15.87,8.81Z"/><path class="cls-30" d="M18.1,15.74s-.54,2.24-.51,2.11S15.88,20,15.88,19.93s1.24-2.78,1.32-2.88C17.47,16.7,18.1,15.74,18.1,15.74Z"/><path class="cls-30" d="M21.78,15.11s-1.28,2.63-1.36,2.74,1.14,2.08,1.14,2.08l1.09-3.74Z"/><polygon class="cls-15" points="15.88 19.93 17.16 19.02 17.59 17.85 15.88 19.93"/></svg>