<svg id="Ñëîé_1" data-name="Ñëîé 1" xmlns="http://www.w3.org/2000/svg" viewBox="0 0 23.29 82.99"><defs><style>.cls-1{fill:#292e3b;}.cls-2{fill:#f2fbff;}.cls-3{fill:#feb990;}.cls-4{fill:#eda688;}.cls-5{fill:#282f47;}.cls-6{fill:#f5ac8c;}.cls-7{fill:#394366;}.cls-8{fill:#1a1f2e;}.cls-9{fill:#21273b;}.cls-10{fill:#2d3442;}.cls-11{fill:#23282e;}.cls-12{fill:#d8e3ed;}.cls-13{fill:#c7c4f2;}.cls-14{fill:#f2b6f0;}.cls-15{fill:#f2e7c9;}.cls-16{fill:#b6c4e3;}.cls-17{fill:#2c3340;}.cls-18{fill:#272c33;}.cls-19{fill:#dfeaf5;}.cls-20{fill:#1d100a;}.cls-21{fill:#120a06;}.cls-22{fill:#f2b189;}.cls-23{fill:#f3f0ff;}.cls-24{fill:#2a273d;}.cls-25{fill:#c27161;}.cls-26{fill:#e38b68;}.cls-27{fill:#dd8a5f;}.cls-28{fill:#f78a9a;}.cls-29{fill:#ed7984;}.cls-30{fill:#382011;}.cls-31{fill:#422715;}.cls-32{fill:#e3976f;}</style></defs><title>minor_problem</title><path class="cls-1" d="M13,15.39s2.11-.5,2.86.64,2.47,7.69,3.28,9.57.32,2.62-.6,3-1.72.06-2.41-1.52-4.44-9.5-4.44-9.5S11.06,16.3,13,15.39Z"/><path class="cls-1" d="M18.06,21.08c.4-1.09.85-1.78,1.33-3.07s.58-2.76.91-3.42c0,0,2.42,1.36,2.4,1.42-.47,1.39-.94,6.51-1.71,8.18s-1.35,3.29-1.35,3.29-.58,2-2.27,1.13a2.51,2.51,0,0,1-.75-3.16A38.18,38.18,0,0,0,18.06,21.08Z"/><polygon class="cls-2" points="20.39 14.71 20.54 14.31 22.68 15.63 22.6 15.99 20.39 14.71"/><path class="cls-3" d="M3.44,28.44l1-11.56s0-1.14-.63-1.11c-.84.05-1.76.07-2.19.91s-.29,3.16-.47,5.51-.1,4.64-.35,6c0,0,.2,2,1.24,2C3.29,30.3,3.44,28.44,3.44,28.44Z"/><path class="cls-3" d="M.76,28A26.37,26.37,0,0,0,.33,32.5C.5,34.67.68,36,.69,36.22c0,.56.11,3.59.15,4s-.09,2.38.81,2.36c1.13,0,1-1.16,1.15-1.83s.74-10.38.74-10.5c0-.73-.1-2-.1-2s-.08-1.62-1.23-1.68C1.26,26.52.76,28,.76,28Z"/><path class="cls-3" d="M.93,40.43a24,24,0,0,0-.45,4.92,4.89,4.89,0,0,0,1,1.63,3.94,3.94,0,0,0,1.31.31s.23-.29.08-.42-.71-.31-.6-.31.86.09,1-.05S3.21,46,3.21,46s.54-.16.13-.52-.61-.42-.48-1A10.71,10.71,0,0,0,3.1,42c0-1.05-.17-1.54-.58-1.52S.93,40.43.93,40.43Z"/><path class="cls-4" d="M3.3,46.51c.17-.13-.09-.51-.09-.51s.54-.16.13-.52-.61-.42-.48-1A10.71,10.71,0,0,0,3.1,42c0-1.05-.17-1.54-.58-1.52-.19,0-.53,0-.85,0l-.62,2.12A8.46,8.46,0,0,0,1,45.12a2.57,2.57,0,0,0,.88,1.3l.51.14A2.16,2.16,0,0,0,3.3,46.51Z"/><path class="cls-3" d="M1.21,40.56a11.56,11.56,0,0,0-.39,2.13,12.07,12.07,0,0,1,.37,1.47,7.08,7.08,0,0,0,.05,1.5c.08,0,.49.18.58-.6a9.83,9.83,0,0,0,0-1.54,4.31,4.31,0,0,0,.71-1.7c0-.72,0-1.51-.51-1.53A1.33,1.33,0,0,0,1.21,40.56Z"/><polygon class="cls-2" points="0.72 40.57 0.68 41.01 2.87 40.98 2.81 40.35 0.72 40.57"/><path class="cls-1" d="M3.6,28.42,4.72,16.71s0-1.15-.73-1.12c-1,.05-2,.07-2.53.92A7.48,7.48,0,0,0,.8,19.72c0,.72.19,1.59.12,2.37C.71,24.47.8,26.78.51,28.21c0,0,.23,2,1.43,2C3.44,30.3,3.6,28.42,3.6,28.42Z"/><path class="cls-1" d="M.3,35.94c0,.55,0,3.13,0,3.53,0,.07-.19,1-.18,1.1l2.78,0c.2-1.58.83-10.19.83-10.3,0-.73-.13-2-.13-2s-.09-1.62-1.41-1.68C1.08,26.52.51,28,.51,28A23.77,23.77,0,0,0,0,32.5C.21,34.67.29,35.67.3,35.94Z"/><path class="cls-5" d="M5.41,80.52s-1.51.36-1.8.74a.87.87,0,0,0-.1.82A4.18,4.18,0,0,0,6,82.31c1.85-.2,2.07-.58,2.07-.58s1.27-1.06,1.64-1.28a11.25,11.25,0,0,1,0,1.3l.69-.18a18,18,0,0,0,.55-2.4c.06-.69.06-1.43-.66-1.27a22.72,22.72,0,0,0-3.23,2A4.86,4.86,0,0,1,5.41,80.52Z"/><path class="cls-6" d="M8.9,77.43A26.15,26.15,0,0,1,6,80.2a2,2,0,0,1-.67.46,1.35,1.35,0,0,0,1.27.23,15.06,15.06,0,0,0,4.12-2.74,3,3,0,0,0,0-.93,1.06,1.06,0,0,0-1.12-1.13C9,76.1,8.9,77.43,8.9,77.43Z"/><path class="cls-7" d="M3.82,81.23a9.13,9.13,0,0,0,1.56.14c.1,0-.15-.35-.15-.35a1.94,1.94,0,0,0,.74.23,3.76,3.76,0,0,0,.58-.17s-1,0-1.29-.34c0,0,0-.09,0-.09A4,4,0,0,0,3.82,81.23Z"/><path class="cls-8" d="M6.79,81.87a7.23,7.23,0,0,1-3.33,0,1.22,1.22,0,0,0,0,.19A4.18,4.18,0,0,0,6,82.31c1.85-.2,2.07-.58,2.07-.58s1.27-1.06,1.64-1.28a11.25,11.25,0,0,1,0,1.3l.69-.18A18.17,18.17,0,0,0,11,79.21,16,16,0,0,1,6.79,81.87Z"/><path class="cls-6" d="M8.35,58.14A2.3,2.3,0,0,0,7,60.59a52.88,52.88,0,0,0,1.13,8.3,22,22,0,0,1,.41,8.84C8.23,79.35,10,80,10.4,79.2a6.76,6.76,0,0,0,.53-2.53,73.29,73.29,0,0,0,.72-10.75,49.4,49.4,0,0,0-.91-6.69S9.53,57.72,8.35,58.14Z"/><path class="cls-6" d="M3,37.29s-1.19,1.93-.44,6.57C3.23,48,6.53,58.61,7,60.59c.59,2.65,3.53,2.67,3.73-.19s-.43-18.66-.43-18.66S8.4,36.25,3,37.29Z"/><path class="cls-9" d="M7.35,81.94c0,.3,0,.78.22,1s3.55.19,4-.5a2.08,2.08,0,0,1,.33-.86,4.14,4.14,0,0,1,.73-.09l.1-2.93s-.09-.47-.75-.42-2.94,2.7-2.94,2.7S7.37,81.65,7.35,81.94Z"/><path class="cls-3" d="M11.28,76.08c-.91.09-1.37,1.29-1.54,1.87S9.38,79.54,9.25,80a4.36,4.36,0,0,1-.71,1.18s1.92.5,2.67-.34a16.46,16.46,0,0,0,1.33-2.45c0-.09-.13-1.15-.17-1.24S12.08,76,11.28,76.08Z"/><path class="cls-7" d="M8.44,81.23s-.2.13-.2.13.29.19.25.19l-.49,0s-.48.31-.33.39A4.9,4.9,0,0,0,10,81.85a3.16,3.16,0,0,1-.53-.23c.05,0,.67.08.93-.1l-.27-.11A3.43,3.43,0,0,1,8.44,81.23Z"/><path class="cls-8" d="M7.38,82.6a.5.5,0,0,0,.19.29c.25.17,3.55.19,4-.5a2.08,2.08,0,0,1,.33-.86,4.14,4.14,0,0,1,.73-.09l.06-1.73-.67.94a5.75,5.75,0,0,1-1,1.65A8.08,8.08,0,0,1,7.38,82.6Z"/><path class="cls-3" d="M11.69,58.06c-.95.29-2.28.83-2,2.46a33.51,33.51,0,0,1,.86,5.21c0,1.29.31,7.18.11,8.48-.3,2-1.11,3.82-.63,4.63a1.19,1.19,0,0,0,2,.21s.73-.27.4-2c-.14-.78,2.48-8,2.69-10.75a16.77,16.77,0,0,0-.77-6.47A2.35,2.35,0,0,0,11.69,58.06Z"/><path class="cls-3" d="M9.63,39.32s-2,2.09-1.78,4.25.94,9,1,10.94a51.65,51.65,0,0,0,.83,6c.21,1,1.21,2.54,2.38,2.35s2.39-1.18,2.22-3.31a19.35,19.35,0,0,1,.36-5.75c.45-2.94,3.15-10.83,1.6-15.08C16,37.7,11.89,37.91,9.63,39.32Z"/><path class="cls-6" d="M14.24,57.47h-5c.07.48.14,1.39.21,1.82A17.31,17.31,0,0,1,14.28,59C14.26,58.57,14.23,57.86,14.24,57.47Z"/><path class="cls-10" d="M13.92,29.84,3.94,30C3.73,31.2,3,32.43,2.58,34.18a46.08,46.08,0,0,0-.45,8C3,48.39,4.6,53.18,5.4,58.62h9.82C14.88,55.2,18,45.67,17,38.94A48.54,48.54,0,0,0,13.92,29.84Z"/><path class="cls-11" d="M17,38.94a18.68,18.68,0,0,0-.68-2.69l-14.06.89c-.06.82-.11,1.69-.14,2.5a18.89,18.89,0,0,1,4-.41c2,0,7,.2,11,.48C17.05,39.45,17,39.19,17,38.94Z"/><path class="cls-12" d="M7,12.57a14.62,14.62,0,0,1,2.19-1.29,9.86,9.86,0,0,0,2,.14l.31,1.51-2.83,2-2.25-.45Z"/><path class="cls-3" d="M11,13a21,21,0,0,1,.1-3.32c.08-.44-.38-1-2.43-1,0,0-1.94.58-1.94,1.32s.79,3.68,0,4.26a13,13,0,0,1-2.32,1V27h8a12.07,12.07,0,0,1,.75-3.13V15A2.77,2.77,0,0,1,11,13Z"/><path class="cls-6" d="M13.91,15.67c-.09,0-5.07-.21-5.07-.21l.89-.13,3.15,0Z"/><path class="cls-6" d="M7.38,15.22c0,.06.3.54.48.55s.54-.48.54-.48l-.53.22Z"/><path class="cls-6" d="M4.11,15.3s3.08.1,3.08.1l-.53-.18-1.92-.17Z"/><path class="cls-6" d="M5.64,15a15.67,15.67,0,0,0,1.57,1.37l-.34-2.21s.28-1.54,1.22-1.56,1.91-.25,2,.16a11.78,11.78,0,0,1-1.16,3.49c-.55,1.31,1.11-.71,1.11-.71a19.6,19.6,0,0,0,1.05-2.24,8.92,8.92,0,0,1,0-3.78A14.31,14.31,0,0,1,11.39,8s-1.85.2-2.71.2c0,0-2,1-2,1.77s.79,3.68,0,4.26a5.74,5.74,0,0,1-1.15.54Z"/><path class="cls-13" d="M6.91,13.89a.17.17,0,0,1-.16.14.12.12,0,0,1-.12-.13.16.16,0,0,1,.16-.14A.12.12,0,0,1,6.91,13.89Z"/><path class="cls-14" d="M6.9,13.9a.15.15,0,0,1-.14.13.11.11,0,0,1-.11-.13.14.14,0,0,1,.14-.13A.11.11,0,0,1,6.9,13.9Z"/><path class="cls-15" d="M6.88,13.9a.12.12,0,0,1-.11.11.08.08,0,0,1-.09-.1.12.12,0,0,1,.11-.11A.09.09,0,0,1,6.88,13.9Z"/><path class="cls-13" d="M7,14.12a.15.15,0,0,1-.15.14.12.12,0,0,1-.12-.13A.16.16,0,0,1,6.86,14,.11.11,0,0,1,7,14.12Z"/><path class="cls-14" d="M7,14.13a.15.15,0,0,1-.14.13.11.11,0,0,1-.12-.13A.17.17,0,0,1,6.87,14,.11.11,0,0,1,7,14.13Z"/><path class="cls-15" d="M7,14.14a.13.13,0,0,1-.12.1.09.09,0,0,1-.09-.1.13.13,0,0,1,.12-.1A.08.08,0,0,1,7,14.14Z"/><path class="cls-13" d="M7.12,14.34a.16.16,0,0,1-.15.14.12.12,0,0,1-.12-.13A.16.16,0,0,1,7,14.21.11.11,0,0,1,7.12,14.34Z"/><path class="cls-14" d="M7.12,14.34a.16.16,0,0,1-.14.14.12.12,0,0,1-.12-.13A.16.16,0,0,1,7,14.22.1.1,0,0,1,7.12,14.34Z"/><path class="cls-15" d="M7.1,14.35a.13.13,0,0,1-.12.11.09.09,0,0,1-.09-.1A.14.14,0,0,1,7,14.25.09.09,0,0,1,7.1,14.35Z"/><path class="cls-13" d="M7.31,14.5a.16.16,0,0,1-.15.14A.11.11,0,0,1,7,14.51a.16.16,0,0,1,.15-.14A.12.12,0,0,1,7.31,14.5Z"/><path class="cls-14" d="M7.3,14.51a.15.15,0,0,1-.14.13.1.1,0,0,1-.11-.12.17.17,0,0,1,.14-.14A.11.11,0,0,1,7.3,14.51Z"/><path class="cls-15" d="M7.28,14.52a.11.11,0,0,1-.11.1.08.08,0,0,1-.09-.1.12.12,0,0,1,.11-.1A.08.08,0,0,1,7.28,14.52Z"/><path class="cls-13" d="M7.5,14.65a.17.17,0,0,1-.15.14.12.12,0,0,1-.12-.13.16.16,0,0,1,.15-.14A.11.11,0,0,1,7.5,14.65Z"/><path class="cls-14" d="M7.5,14.65a.17.17,0,0,1-.14.14.11.11,0,0,1-.12-.13.16.16,0,0,1,.15-.13A.1.1,0,0,1,7.5,14.65Z"/><path class="cls-15" d="M7.48,14.66a.13.13,0,0,1-.12.11.09.09,0,0,1-.09-.1.13.13,0,0,1,.12-.11A.08.08,0,0,1,7.48,14.66Z"/><path class="cls-13" d="M7.7,14.76a.17.17,0,0,1-.15.14.12.12,0,0,1-.12-.13.16.16,0,0,1,.15-.14A.11.11,0,0,1,7.7,14.76Z"/><path class="cls-14" d="M7.7,14.76a.15.15,0,0,1-.14.13.1.1,0,0,1-.12-.12.16.16,0,0,1,.15-.13A.1.1,0,0,1,7.7,14.76Z"/><path class="cls-15" d="M7.68,14.77a.13.13,0,0,1-.12.11.09.09,0,0,1-.09-.1.13.13,0,0,1,.12-.11A.08.08,0,0,1,7.68,14.77Z"/><path class="cls-13" d="M7.93,14.86a.18.18,0,0,1-.15.14.12.12,0,0,1-.12-.14.18.18,0,0,1,.15-.14A.12.12,0,0,1,7.93,14.86Z"/><path class="cls-14" d="M7.93,14.86a.16.16,0,0,1-.15.13.1.1,0,0,1-.11-.12.15.15,0,0,1,.15-.13A.1.1,0,0,1,7.93,14.86Z"/><path class="cls-15" d="M7.91,14.87a.13.13,0,0,1-.12.11.09.09,0,0,1-.09-.1.13.13,0,0,1,.12-.11A.09.09,0,0,1,7.91,14.87Z"/><path class="cls-13" d="M8.19,14.9A.15.15,0,0,1,8,15a.12.12,0,0,1-.12-.13.16.16,0,0,1,.16-.14A.11.11,0,0,1,8.19,14.9Z"/><path class="cls-14" d="M8.19,14.91a.15.15,0,0,1-.14.13.11.11,0,0,1-.11-.13.15.15,0,0,1,.14-.13A.11.11,0,0,1,8.19,14.91Z"/><path class="cls-15" d="M8.17,14.92a.13.13,0,0,1-.11.1.08.08,0,0,1-.09-.1.11.11,0,0,1,.11-.1A.08.08,0,0,1,8.17,14.92Z"/><path class="cls-13" d="M8.43,14.91a.15.15,0,0,1-.15.14.12.12,0,0,1-.12-.13.16.16,0,0,1,.16-.14A.11.11,0,0,1,8.43,14.91Z"/><path class="cls-14" d="M8.43,14.92a.15.15,0,0,1-.14.13.12.12,0,0,1-.12-.13.16.16,0,0,1,.15-.13A.11.11,0,0,1,8.43,14.92Z"/><path class="cls-15" d="M8.41,14.93a.13.13,0,0,1-.11.1.08.08,0,0,1-.09-.1.11.11,0,0,1,.11-.1A.08.08,0,0,1,8.41,14.93Z"/><path class="cls-13" d="M8.68,14.91a.16.16,0,0,1-.16.14.12.12,0,0,1-.12-.13.17.17,0,0,1,.16-.14A.12.12,0,0,1,8.68,14.91Z"/><path class="cls-14" d="M8.67,14.92a.15.15,0,0,1-.14.13.1.1,0,0,1-.11-.12.16.16,0,0,1,.14-.14A.11.11,0,0,1,8.67,14.92Z"/><path class="cls-15" d="M8.65,14.93a.12.12,0,0,1-.11.1.08.08,0,0,1-.09-.1.11.11,0,0,1,.11-.1A.08.08,0,0,1,8.65,14.93Z"/><path class="cls-13" d="M10.48,13.77a.11.11,0,0,0,.12.13.16.16,0,0,0,.15-.14.12.12,0,0,0-.12-.13A.16.16,0,0,0,10.48,13.77Z"/><path class="cls-14" d="M10.48,13.78a.1.1,0,0,0,.11.12.16.16,0,0,0,.15-.13.11.11,0,0,0-.12-.12A.15.15,0,0,0,10.48,13.78Z"/><path class="cls-15" d="M10.5,13.79a.08.08,0,0,0,.09.09.11.11,0,0,0,.11-.1.08.08,0,0,0-.09-.1A.12.12,0,0,0,10.5,13.79Z"/><path class="cls-13" d="M10.34,14a.12.12,0,0,0,.12.13.15.15,0,0,0,.15-.14.11.11,0,0,0-.12-.13A.16.16,0,0,0,10.34,14Z"/><path class="cls-14" d="M10.34,14a.12.12,0,0,0,.12.12A.15.15,0,0,0,10.6,14a.11.11,0,0,0-.11-.13A.17.17,0,0,0,10.34,14Z"/><path class="cls-15" d="M10.36,14a.09.09,0,0,0,.09.1.13.13,0,0,0,.12-.1.08.08,0,0,0-.09-.1A.13.13,0,0,0,10.36,14Z"/><path class="cls-13" d="M10.15,14.24a.11.11,0,0,0,.12.13.17.17,0,0,0,.15-.14.12.12,0,0,0-.12-.13A.15.15,0,0,0,10.15,14.24Z"/><path class="cls-14" d="M10.15,14.24a.11.11,0,0,0,.11.13.16.16,0,0,0,.15-.13.12.12,0,0,0-.12-.13A.15.15,0,0,0,10.15,14.24Z"/><path class="cls-15" d="M10.17,14.25a.08.08,0,0,0,.09.1.12.12,0,0,0,.11-.1.08.08,0,0,0-.09-.1A.12.12,0,0,0,10.17,14.25Z"/><path class="cls-13" d="M9.92,14.42a.12.12,0,0,0,.12.13.17.17,0,0,0,.15-.14.11.11,0,0,0-.12-.13A.16.16,0,0,0,9.92,14.42Z"/><path class="cls-14" d="M9.92,14.42a.12.12,0,0,0,.12.13.17.17,0,0,0,.14-.14.1.1,0,0,0-.11-.12A.16.16,0,0,0,9.92,14.42Z"/><path class="cls-15" d="M9.94,14.43a.09.09,0,0,0,.09.1.13.13,0,0,0,.12-.11.09.09,0,0,0-.09-.1A.13.13,0,0,0,9.94,14.43Z"/><path class="cls-13" d="M9.69,14.57a.12.12,0,0,0,.12.14.18.18,0,0,0,.15-.14.11.11,0,0,0-.12-.13A.16.16,0,0,0,9.69,14.57Z"/><path class="cls-14" d="M9.69,14.58a.1.1,0,0,0,.11.12.16.16,0,0,0,.15-.13.1.1,0,0,0-.11-.12A.15.15,0,0,0,9.69,14.58Z"/><path class="cls-15" d="M9.71,14.59a.08.08,0,0,0,.09.1.13.13,0,0,0,.12-.11.09.09,0,0,0-.1-.1A.13.13,0,0,0,9.71,14.59Z"/><path class="cls-13" d="M9.46,14.7a.12.12,0,0,0,.12.13.17.17,0,0,0,.15-.14.11.11,0,0,0-.12-.13A.16.16,0,0,0,9.46,14.7Z"/><path class="cls-14" d="M9.46,14.7a.12.12,0,0,0,.12.13.15.15,0,0,0,.14-.13.11.11,0,0,0-.11-.13A.16.16,0,0,0,9.46,14.7Z"/><path class="cls-15" d="M9.48,14.71a.08.08,0,0,0,.09.1.13.13,0,0,0,.12-.1c0-.06,0-.11-.09-.1A.12.12,0,0,0,9.48,14.71Z"/><path class="cls-13" d="M9.21,14.81a.11.11,0,0,0,.12.13.16.16,0,0,0,.15-.14.12.12,0,0,0-.12-.13A.17.17,0,0,0,9.21,14.81Z"/><path class="cls-14" d="M9.21,14.82a.1.1,0,0,0,.11.12.14.14,0,0,0,.14-.13.1.1,0,0,0-.11-.12A.15.15,0,0,0,9.21,14.82Z"/><path class="cls-15" d="M9.23,14.83a.09.09,0,0,0,.09.1.12.12,0,0,0,.11-.11.08.08,0,0,0-.09-.1A.11.11,0,0,0,9.23,14.83Z"/><path class="cls-13" d="M8.93,14.88a.11.11,0,0,0,.12.13.18.18,0,0,0,.15-.14.11.11,0,0,0-.12-.13A.16.16,0,0,0,8.93,14.88Z"/><path class="cls-14" d="M8.93,14.88A.11.11,0,0,0,9,15a.17.17,0,0,0,.15-.14.1.1,0,0,0-.11-.12A.16.16,0,0,0,8.93,14.88Z"/><path class="cls-15" d="M9,14.89A.08.08,0,0,0,9,15a.13.13,0,0,0,.12-.11.1.1,0,0,0-.09-.1A.14.14,0,0,0,9,14.89Z"/><path class="cls-13" d="M8.69,14.9c0,.08,0,.14.11.13A.16.16,0,0,0,9,14.89a.12.12,0,0,0-.12-.13A.15.15,0,0,0,8.69,14.9Z"/><path class="cls-14" d="M8.69,14.91A.1.1,0,0,0,8.8,15a.14.14,0,0,0,.14-.13.1.1,0,0,0-.11-.12A.15.15,0,0,0,8.69,14.91Z"/><path class="cls-15" d="M8.71,14.92a.09.09,0,0,0,.09.1.14.14,0,0,0,.11-.11.08.08,0,0,0-.09-.1A.11.11,0,0,0,8.71,14.92Z"/><path class="cls-12" d="M10.91,13.16C9.73,14.28,7.63,16.8,7.28,16.8s-.42-2.1-.51-2.91A15.35,15.35,0,0,1,4.4,15.17V22l1.09,2.1a25.6,25.6,0,0,1,3.78-.49c-.07.19,3.08-4.16,3.08-4.16l.74-4.53C12.09,14.88,11.14,13.67,10.91,13.16Z"/><path class="cls-16" d="M8.13,16.39c0-.05,1.88-2,1.88-2l.58,1.16S9,17.51,9,17.56s-1.31,2-1.3,2a28.15,28.15,0,0,1,2.1-3.75c0,.14,0-.44-.15-.31Z"/><path class="cls-16" d="M6.25,18.8s.15-3,.2-3a4.58,4.58,0,0,1,.39.71l-.21-2.05-.5.62L6,16Z"/><path class="cls-16" d="M7.34,16.89c0,.08-.22,1.58-.22,1.58s-.76,2.85-.78,2.74.5-2.72.52-2.79Z"/><path class="cls-17" d="M1.75,38.69s3.6,0,3.6,0L5.64,37l.45,1.69H17.17c-.56-5.08-2.24-8.21-3.77-10.12-.06-1.57.88-6.34,2.78-7.66.91-.92-.09-4.77-1-5.25s-3.12-.8-3.62-1.7L6.4,21.19a9.23,9.23,0,0,1-.69-2.58c0-1.06.49-4.21.49-4.21a31.26,31.26,0,0,1-4,1.53,25,25,0,0,1,.38,3.53,4.5,4.5,0,0,0-.94,2.12A2.91,2.91,0,0,0,3.09,24.1c.2,2.35,1,4.44.9,5C3.81,30.22,1.77,33.29,1.75,38.69Z"/><path class="cls-18" d="M5.49,24.11c0,.06.75,5.28.75,5.28l-.52,6.67s.13-5.73,0-7A41.4,41.4,0,0,1,5.49,24.11Z"/><path class="cls-1" d="M6.19,22.19l4.57-3.61-1-.88,1.43.33,1.09-3.45c-.33-.17-.39-.71-.53-.95L9,17.18l-2.63,4s-.19-2.79-.21-3.76c0-1.19,0-3.56,0-3.56-.26.15-.64.85-1,1l-.82,2.23,1.31.21-1.18.34Z"/><path class="cls-19" d="M7,12.57s-.15,1.69-.15,1.78l-.36.08s-1.52,2.1-1.52,2.05,1.39-3.05,1.47-3.16C6.69,13,7,12.57,7,12.57Z"/><path class="cls-19" d="M11.14,11.42l-1.44,3a10.81,10.81,0,0,0,1.1,2.11c.09.07,1.25-4,1.25-4Z"/><polygon class="cls-16" points="4.93 16.48 6.19 15.59 6.63 14.43 6.2 14.43 4.93 16.48"/><path class="cls-18" d="M11.52,24.1c.69,0,1.31-.79-.18-1s-8.6-.18-9.41-.93a1.93,1.93,0,0,1-.27-.3A2.82,2.82,0,0,0,3.09,24.1S10.32,24.14,11.52,24.1Z"/><path class="cls-20" d="M12.07,1.34S12-.39,9.11.08c0,0-3.63-.64-4.84,2a3.52,3.52,0,0,0,0,1.6,5.65,5.65,0,0,0-.85,2.48c.06,1,.28,1.28.28,1.68s-.52,1.64-.48,2,0,2.33.56,2.07c0,0,.73,1.26,1.56.34a1.77,1.77,0,0,0,2.53-.47c.32-.49,2.33-.46,2.33-.46s.25,1.32,1.64.57c0,0,.38.9,1.73,0a.76.76,0,0,0,1.15-.7c-.07,0-.68.75-.83-.41-.07-.59.68-.95.68-1.95,0,0,.13-.33-.26-1a2.7,2.7,0,0,1,0-2.11c.2-.47-.66-1.64-.87-1.92Z"/><path class="cls-21" d="M11.86,11.85h0v0h0s0,0,0,0h0l0,0h0l0,0h0l.05,0h0l.06,0h0l.07,0h0a.11.11,0,0,0,.08,0h0l.09,0h.4a1.91,1.91,0,0,1-.52-.64,2,2,0,0,1-.11-1.41c.1-.31.28-.59.38-.89a1,1,0,0,0-.06-.93A1.07,1.07,0,0,0,11.9,8c-1.24-.36-2.55.27-3.83.22C7.59,8.21,6,6.59,5.61,6.9s.76,3.72-.75,5.64a1,1,0,0,0,.5-.33A2.15,2.15,0,0,0,7,12.49a2,2,0,0,0,.91-.75c.32-.49,2.33-.46,2.33-.46l0,.11v0a.71.71,0,0,0,.07.16l0,.07,0,0v0l0,0h0a.58.58,0,0,0,.1.12l0,0a.6.6,0,0,0,.21.14h0l.09,0h.17a1.52,1.52,0,0,0,.8-.23Z"/><path class="cls-22" d="M11.61,7.11c0,.56-.09,1.13-.14,1.69a.34.34,0,0,0,0,.26.24.24,0,0,0,.28,0A.7.7,0,0,0,12,8.89a2.91,2.91,0,0,0,.48-1.46,1,1,0,0,0-.15-.64.42.42,0,0,0-.6-.08A.62.62,0,0,0,11.61,7.11Z"/><path class="cls-3" d="M8.24,2c-.21,0-2.39.21-2.7,1.37a18,18,0,0,0,.13,5.22c.16.72.66,2.59,1.94,3.36a2.38,2.38,0,0,0,1.15.42A2.12,2.12,0,0,0,10,11.85,6.59,6.59,0,0,0,11.73,8.3a17.56,17.56,0,0,0-.21-5.22C11.12,2,8.93,1.89,8.73,1.93Z"/><path class="cls-23" d="M9.79,6.49c0,.08-.06.5.1.66s.89.09.89.09a.69.69,0,0,0,.49-.2c.14-.2.12-.46.08-.46a6.4,6.4,0,0,0-.64-.4c-.06,0-.64.11-.68.13Z"/><path class="cls-24" d="M11.05,6.79a.53.53,0,0,1-.2.41c-.08.07-.18,0-.3,0a.51.51,0,0,1-.35-.07A.5.5,0,0,1,10,6.79a.52.52,0,0,1,1,0Z"/><path class="cls-25" d="M9.51,7.14a1.54,1.54,0,0,1,.31-.86,3.15,3.15,0,0,1,1.26-.21,3,3,0,0,1,.48.69c0,.08-.18,0-.18,0a.8.8,0,0,0-.77-.26c-.52.07-.69.12-.78.22S9.51,7.14,9.51,7.14Z"/><path class="cls-26" d="M9.51,7.16a2.62,2.62,0,0,1,.35,0,3.49,3.49,0,0,0,.76.1c.23,0,.65,0,.74-.48,0,0,.08,0,.08,0a.69.69,0,0,1-.77.53,3.37,3.37,0,0,1-.82-.15Z"/><path class="cls-21" d="M9.51,7.16s.38-.46.53-.52a2,2,0,0,1,1,0c.26.09.38.34.7.18a1.23,1.23,0,0,1-.53-.35,2,2,0,0,0-1.27,0A2,2,0,0,0,9.51,7.16Z"/><path class="cls-23" d="M7.46,6.49c0,.08.06.5-.09.66s-.89.09-.89.09A.68.68,0,0,1,6,7a.52.52,0,0,1-.09-.46s.58-.41.64-.4.65.11.68.13Z"/><path class="cls-24" d="M6.21,6.79a.52.52,0,0,0,.19.41c.09.07.19,0,.31,0a.51.51,0,0,0,.35-.07.5.5,0,0,0,.18-.39.52.52,0,0,0-1,0Z"/><path class="cls-25" d="M7.75,7.14a1.54,1.54,0,0,0-.31-.86,3.2,3.2,0,0,0-1.27-.21,2.72,2.72,0,0,0-.47.69c0,.08.17,0,.17,0a.8.8,0,0,1,.77-.26c.52.07.7.12.78.22S7.75,7.14,7.75,7.14Z"/><path class="cls-26" d="M7.74,7.16a2.66,2.66,0,0,0-.34,0,3.49,3.49,0,0,1-.76.1c-.23,0-.65,0-.74-.48,0,0-.08,0-.08,0a.68.68,0,0,0,.77.53,3.53,3.53,0,0,0,.82-.15Z"/><path class="cls-21" d="M7.74,7.16s-.38-.46-.53-.52a2,2,0,0,0-1,0c-.25.09-.37.34-.7.18a1.33,1.33,0,0,0,.54-.35,1.94,1.94,0,0,1,1.26,0A1.7,1.7,0,0,1,7.74,7.16Z"/><path class="cls-21" d="M7.82,5.59s-.08.31-.17.29a4,4,0,0,0-1.36-.4,1.82,1.82,0,0,0-.94.45s.47-.7,1-.7A6.18,6.18,0,0,1,7.82,5.59Z"/><path class="cls-21" d="M9.43,5.59s.09.31.18.29A3.87,3.87,0,0,1,11,5.48a1.87,1.87,0,0,1,.95.45s-.47-.7-1-.7A6.3,6.3,0,0,0,9.43,5.59Z"/><path class="cls-27" d="M8,6l0,0a.24.24,0,0,1,0,.07,2.9,2.9,0,0,1,.11.27,1.21,1.21,0,0,0,.05.18l.06.21c0,.08,0,.15,0,.23a1.85,1.85,0,0,1,0,.23l0,.24v.35s0,.07,0,.1,0,.14,0,.19-.07.21-.09.28l0,.07v0l0-.11,0-.28c0-.06,0-.12,0-.19v-.2c0-.08,0-.15,0-.23l0-.23A1.57,1.57,0,0,0,8.2,7l0-.23,0-.21a1.16,1.16,0,0,1,0-.18A2.13,2.13,0,0,0,8,6.13a.45.45,0,0,0,0-.08A0,0,0,0,0,8,6Z"/><path class="cls-27" d="M8,9l.06,0,.15.06a.88.88,0,0,1,.2.12l0,0h0l0,0h0l.1,0a.54.54,0,0,0,.22,0l.09-.07L9,9.1,9.16,9l.05,0h0l0,0-.11.12L9,9.22l0,0-.06,0a.31.31,0,0,1-.13.06.32.32,0,0,1-.14,0,.4.4,0,0,1-.15,0l-.06,0h0l0,0L8.28,9.2,8.2,9.13,8.07,9Z"/><path class="cls-27" d="M8,8.64l0,0a.36.36,0,0,1,0,.09l-.07.12,0,.06a.2.2,0,0,0,0,.07h0v0h0l0,0,.05,0,0,0,.09.05,0,0H8a.33.33,0,0,1-.15-.05l0,0,0-.05h0v0a0,0,0,0,1,0,0V9l0-.1s0,0,0,0l0,0a.1.1,0,0,1,.05-.06l0,0L8,8.66Z"/><path class="cls-27" d="M9.33,8.69l0,0,.08.06a.3.3,0,0,1,.09.13.29.29,0,0,1,0,.09V9h0v0a0,0,0,0,1,0,0,.19.19,0,0,1-.07.08l-.08.05-.14,0H9.11s0,0,0,0l0,0,.05,0,.12-.06.05,0,0,0v0h0V9h0a.15.15,0,0,0,0-.07.56.56,0,0,0,0-.12l-.05-.09Z"/><path class="cls-28" d="M7.09,10.08c0,.06.43.5.56.62a1.69,1.69,0,0,0,1.1.45,1.75,1.75,0,0,0,1.12-.49c.11-.11.6-.76.6-.76s-.39.32-.42.33-1.25.18-1.27.19-1.39-.17-1.39-.17Z"/><path class="cls-29" d="M7,10a1.67,1.67,0,0,0,.44.33,6.78,6.78,0,0,0,1,.16,1.34,1.34,0,0,0,.34.08.69.69,0,0,0,.31-.09,6,6,0,0,0,1-.23,3.7,3.7,0,0,0,.43-.4,2.21,2.21,0,0,1-.38.25c-.11,0-.28-.21-1-.19-.11,0-.28.21-.38.21s-.22-.2-.39-.2a4.65,4.65,0,0,0-.94.25A1,1,0,0,1,7,10Z"/><path class="cls-20" d="M14.33,7.88a3.12,3.12,0,0,1-.06-2.06,4.56,4.56,0,0,0-.71-2.13c-.08-.15-.11-1.78-1.49-2.35a1.45,1.45,0,0,0,0-.16.73.73,0,0,0-.25,0,1.29,1.29,0,0,0-.64.56,1.83,1.83,0,0,0-.39,1.54,1.85,1.85,0,0,1,.86,1.13c.28,1-.31,2.16.11,3.12a5.82,5.82,0,0,1,.61,1.19c.14.71-.46,1.33-.62,2a1.75,1.75,0,0,0,.12,1.08l0,0s.38.9,1.73,0a.76.76,0,0,0,1.15-.7c-.07,0-.68.75-.83-.41-.07-.59.74-1,.74-2C14.65,8.81,14.72,8.5,14.33,7.88Z"/><path class="cls-30" d="M4.8,4l-.08-.09c-.55.3-.3,1.29-.5,1.84a2.62,2.62,0,0,0-.1,1.71A3.7,3.7,0,0,0,4.36,8a4,4,0,0,1,.22.47,3.42,3.42,0,0,1-.5,2.72.75.75,0,0,0-.07.12,3.7,3.7,0,0,0-.31.59l.1,0,0,0a3.3,3.3,0,0,1,.27-.53l.08-.12a3.48,3.48,0,0,0,.5-2.82A4.31,4.31,0,0,0,4.46,8a4.67,4.67,0,0,1-.23-.51A2.55,2.55,0,0,1,4.32,5.8C4.52,5.26,4.27,4.29,4.8,4Z"/><path class="cls-30" d="M13.66,11.5s-.05,0-.06,0a.29.29,0,0,1-.17.15.34.34,0,0,1-.28,0,.5.5,0,0,1-.2-.5,1.06,1.06,0,0,1,.28-.53l.15-.18a3.88,3.88,0,0,0,.26-.31A1.74,1.74,0,0,0,13.52,8l-.2-.21a1.06,1.06,0,0,1-.41-.63,1.07,1.07,0,0,1,.28-.67l.2-.3a1.78,1.78,0,0,0,0-1.5,4.36,4.36,0,0,0-.85-1.26,17.14,17.14,0,0,0-1.25-1.31l-.08.08c.44.42.85.85,1.25,1.3a4.41,4.41,0,0,1,.82,1.23,1.66,1.66,0,0,1,0,1.4,1.81,1.81,0,0,1-.19.29,1.2,1.2,0,0,0-.31.75,1.15,1.15,0,0,0,.45.7c.07.07.14.13.2.2a1.65,1.65,0,0,1,.11,2c-.08.11-.17.21-.25.3l-.16.18a1.18,1.18,0,0,0-.3.59.62.62,0,0,0,.25.62.46.46,0,0,0,.38,0l.07,0a1.05,1.05,0,0,1-.2.27l.25-.15h0a.8.8,0,0,0,.11-.34A.06.06,0,0,0,13.66,11.5Z"/><path class="cls-20" d="M12.06,1.31C12,1.1,11.78-.35,9.11.08c0,0-3.63-.64-4.84,2a3.54,3.54,0,0,0,0,1.57l0,.07c0,.35.08,1,.54,1.24a2.63,2.63,0,0,0-.15.53A.62.62,0,0,0,4.88,6a.94.94,0,0,0,.6.19A2.56,2.56,0,0,0,7,6c.5-.31.77-.68,1.23-1S9.51,4.6,10,4.3A4.15,4.15,0,0,0,12.06,1.31Z"/><path class="cls-30" d="M11.62,1.71a2.75,2.75,0,0,0-1.27.48,5.36,5.36,0,0,1-.62.34,4.32,4.32,0,0,1-1.59.26H7.83a7.45,7.45,0,0,0-1.33.1,2.4,2.4,0,0,0-1.45.79,1.49,1.49,0,0,0-.29,1.21s.08.06.1.05a1.5,1.5,0,0,1,.28-1.19A2.33,2.33,0,0,1,6.52,3a7.22,7.22,0,0,1,1.31-.09h.31a4.36,4.36,0,0,0,1.63-.27,5.62,5.62,0,0,0,.64-.34,2.82,2.82,0,0,1,1.1-.45l.44,0,0-.11Z"/><path class="cls-30" d="M11.9.86a2.21,2.21,0,0,0-.57,0,2.25,2.25,0,0,0-1,.34l-.19.11a4.16,4.16,0,0,1-.7.35,4.33,4.33,0,0,1-1.73.1,5.49,5.49,0,0,0-1.46,0A2.73,2.73,0,0,0,4.62,2.82a2.45,2.45,0,0,0-.36.7.89.89,0,0,1,0,.11l0,.07v0a2.54,2.54,0,0,1,.39-.85,2.65,2.65,0,0,1,1.59-1,5.27,5.27,0,0,1,1.43,0,4.26,4.26,0,0,0,1.78-.1,4.84,4.84,0,0,0,.72-.36l.19-.11A2.16,2.16,0,0,1,11.34,1,1.86,1.86,0,0,1,12,1Z"/><path class="cls-30" d="M8.77.22A5.44,5.44,0,0,1,7.7.65a6.17,6.17,0,0,1-.62.11,4.3,4.3,0,0,0-.7.13A3.75,3.75,0,0,0,4.2,2.38c0,.12,0,.24,0,.36A3.27,3.27,0,0,1,6.41,1,4,4,0,0,1,7.1.87c.2,0,.42-.06.62-.11A5.27,5.27,0,0,0,8.82.32L9.46,0l-.15,0h0l-.16,0h0Z"/><polygon class="cls-31" points="10.4 0.02 10.39 0.02 10.39 0.02 10.4 0.02"/><path class="cls-30" d="M11.79,2.3a2.85,2.85,0,0,0-1.13.49,3.67,3.67,0,0,1-.53.3,4.77,4.77,0,0,1-1,.28,3.57,3.57,0,0,0-1.41.54,3.79,3.79,0,0,0-.42.38,2.64,2.64,0,0,1-.54.47A2.7,2.7,0,0,1,6,5H6a2.55,2.55,0,0,0-.83.28,1,1,0,0,0-.4.46.51.51,0,0,0,.07.15.82.82,0,0,1,.39-.51A2.52,2.52,0,0,1,6,5.12H6a2.62,2.62,0,0,0,.82-.26,3,3,0,0,0,.58-.49A2.83,2.83,0,0,1,7.81,4a3.28,3.28,0,0,1,1.37-.51,6,6,0,0,0,1-.29,5.22,5.22,0,0,0,.54-.31,2.76,2.76,0,0,1,1-.47Z"/><path class="cls-20" d="M4.71,6.9a.57.57,0,0,1,0-.55A1.14,1.14,0,0,1,5,5.83a1.84,1.84,0,0,1,.85-.32.69.69,0,0,1,.32,0,.24.24,0,0,1,.18.23c-.19,0,0,.13-.12.28s-.29.05-.6.36-.07,1-.24,1.1S4.83,7,4.71,6.9Z"/><path class="cls-20" d="M5.24,6.4a11.08,11.08,0,0,1,.53,2.15c0,.42,0,2.6-.48,3.11s-.66-.23-.66-.23A5.54,5.54,0,0,0,5.24,9a11.85,11.85,0,0,0-.61-2.11C4.49,6.61,5.16,6.28,5.24,6.4Z"/><path class="cls-3" d="M20.48,13.84a2.28,2.28,0,0,1,0-.3c0-.07.9-3.94,1.11-4.69.09-.31.41-.17.35.38-.05.38-.38,2.19-.38,2.19l1.7,1.13a3.75,3.75,0,0,1,0,.87A7.84,7.84,0,0,1,23,15a5.26,5.26,0,0,1-.33.91,3,3,0,0,1-1-.09C20.92,15.53,20.48,13.84,20.48,13.84Z"/><path class="cls-32" d="M22.28,14.89a1.52,1.52,0,0,1,.77-1.1l.18-.06,0-.31a3.3,3.3,0,0,0,0-.77.45.45,0,0,0,0-.1s-1.68-.92-1.69-.88-.43.38-.51.47a2.86,2.86,0,0,0-.34.82l-.24.59v.29A8.55,8.55,0,0,1,21,15l.06.12C21.6,15.05,22.28,14.89,22.28,14.89Z"/><path class="cls-3" d="M21.55,11.42s.59-.55.74.22c.07,0,.44-.45.57.44,0,.05.34-.17.39.47a5.57,5.57,0,0,1-.19,1s-.09.33-.31-.07c0,0-.35.34-.5-.16,0,0-.25.36-.48-.31A14.65,14.65,0,0,1,21.55,11.42Z"/><path class="cls-32" d="M21.54,11.73s.1-.32.23-.35a4.26,4.26,0,0,0-.14.8,4.76,4.76,0,0,0,.15.9A1.84,1.84,0,0,1,21.54,11.73Z"/><path class="cls-3" d="M22,11.8c0-.06-.34.19-.46.26-.33.21-.41.17-.48.25s-.22.64-.31.85a3.9,3.9,0,0,1-.3.48,1.2,1.2,0,0,0,0,.46,10.23,10.23,0,0,0,.82,1.46c.09,0,.93.31,1.06-.84a3.89,3.89,0,0,0-.92-1.45.61.61,0,0,1,.08-.48C21.68,12.58,22.21,12.5,22,11.8Z"/><path class="cls-32" d="M22,12.12a.64.64,0,0,1-.44.56c.17-.07.5-.09.51-.54A2.29,2.29,0,0,0,22,11.8h0A.8.8,0,0,1,22,12.12Z"/></svg>