<svg id="Ñëîé_1" data-name="Ñëîé 1" xmlns="http://www.w3.org/2000/svg" viewBox="0 0 21.11 81.26"><defs><style>.cls-1{fill:#1d100a;}.cls-2{fill:#120a06;}.cls-3{fill:#feb990;}.cls-4{fill:#eda688;}.cls-5{fill:#f2fbff;}.cls-6{fill:#292e3b;}.cls-7{fill:#272d45;}.cls-8{fill:#f5ac8c;}.cls-9{fill:#21273b;}.cls-10{fill:#2d3442;}.cls-11{fill:#23282e;}.cls-12{fill:#d8e3ed;}.cls-13{fill:#c7c4f2;}.cls-14{fill:#f2b6f0;}.cls-15{fill:#f2e7c9;}.cls-16{fill:#b6c4e3;}.cls-17{fill:#2c3340;}.cls-18{fill:#272c33;}.cls-19{fill:#f2b189;}.cls-20{fill:#f3f0ff;}.cls-21{fill:#2a273d;}.cls-22{fill:#c27161;}.cls-23{fill:#e38b68;}.cls-24{fill:#dd8a5f;}.cls-25{fill:#42261b;}.cls-26{fill:#fff;}.cls-27{fill:#f78a9a;}.cls-28{fill:#ed7984;}.cls-29{fill:#382011;}.cls-30{fill:#422715;}.cls-31{fill:#dfeaf5;}</style></defs><title>neutral</title><path class="cls-1" d="M11.65,1.48S11.56-.43,8.37.09c0,0-4-.71-5.36,2.19A3.94,3.94,0,0,0,3,4.06a6.26,6.26,0,0,0-1,2.73c.07,1.09.31,1.42.31,1.87s-.57,1.82-.52,2.19,0,2.58.61,2.29c0,0,.81,1.4,1.73.38A2,2,0,0,0,7,13c.35-.54,2.57-.52,2.57-.52s.28,1.47,1.82.64c0,0,.42,1,1.91.05a.85.85,0,0,0,1.27-.78c-.07,0-.75.83-.92-.45-.07-.66.76-1,.76-2.16,0,0,.14-.37-.29-1a3,3,0,0,1,0-2.34c.22-.52-.73-1.81-1-2.12Z"/><path class="cls-2" d="M11.42,13.12h0v0h0v0h0l0,0h0l0,.05h0l0,0h0l.05,0h0l.06,0h0l.07,0h0l0,0h0l.09,0h0l.1,0h.45a2.11,2.11,0,0,1-.58-.71,2.16,2.16,0,0,1-.12-1.56c.11-.34.3-.65.42-1a1.14,1.14,0,0,0-.06-1,1.18,1.18,0,0,0-.66-.41c-1.37-.4-2.82.29-4.24.25-.54,0-2.31-1.81-2.72-1.47s.83,4.12-.84,6.24a1.06,1.06,0,0,0,.56-.36,2.33,2.33,0,0,0,1.8.31A2.39,2.39,0,0,0,7,13c.35-.54,2.57-.52,2.57-.52a1.32,1.32,0,0,0,0,.13v0a.71.71,0,0,0,.08.18l0,.08,0,0v0l0,0h0a.69.69,0,0,0,.11.13l0,0a.91.91,0,0,0,.23.15h0l.11,0h.18a1.78,1.78,0,0,0,.89-.25Z"/><path class="cls-3" d="M.47,29.42a18.76,18.76,0,0,0-.23,4.15c.17,2,.14,3.29.15,3.54,0,.52.13,3.38.16,3.76s-.09,2.24.86,2.22c1.2,0,.9-1.16,1-1.79s1-9.7,1-9.8c0-.7-.12-1.88-.12-1.88S3.22,28.1,2,28C1,28,.47,29.42.47,29.42Z"/><path class="cls-3" d="M.57,41.06a24.33,24.33,0,0,0-.41,4.63A4.15,4.15,0,0,0,1.09,47a4.24,4.24,0,0,0,1.16.37s.17-.16,0-.29-.64-.29-.54-.29.77.08.92,0-.07-.48-.07-.48.48-.15.11-.48-.54-.4-.42-.91a10.81,10.81,0,0,0,.21-2.38c0-1-.15-1.45-.52-1.43S.57,41.06.57,41.06Z"/><path class="cls-4" d="M2.67,46.78c.16-.12-.07-.48-.07-.48s.48-.15.11-.48-.54-.4-.42-.91a10.81,10.81,0,0,0,.21-2.38c0-1-.15-1.45-.52-1.43a6.69,6.69,0,0,1-.76,0l-.54,2a8.41,8.41,0,0,0-.1,2.38,2.48,2.48,0,0,0,.79,1.23l.46.13C2,46.85,2.54,46.89,2.67,46.78Z"/><path class="cls-3" d="M.82,41.19a11.56,11.56,0,0,0-.35,2A13.7,13.7,0,0,1,.8,44.58a7,7,0,0,0,0,1.4c.08,0,.44.08.52-.66a7.49,7.49,0,0,0,0-1.35A4.18,4.18,0,0,0,2,42.36c0-.67,0-1.4-.43-1.42A1.08,1.08,0,0,0,.82,41.19Z"/><polygon class="cls-5" points="0.43 41.2 0.38 41.61 2.71 41.59 2.64 40.99 0.43 41.2"/><path class="cls-6" d="M3.3,29.62l1-11.91s0-1.18-.67-1.15a4.1,4.1,0,0,0-2.41,1.32,6.81,6.81,0,0,0-.51,2.89c0,.73.17,1.62.1,2.41C.65,25.61.73,28,.47,29.42c0,0,.21,2,1.31,2.08C3.15,31.54,3.3,29.62,3.3,29.62Z"/><path class="cls-6" d="M.27,36.84c0,.52,0,2.94,0,3.32,0,.07-.17.9-.16,1l2.55,0c.19-1.49.76-9.59.76-9.68,0-.7-.12-1.88-.12-1.88S3.22,28.1,2,28C1,28,.47,29.42.47,29.42A22,22,0,0,0,0,33.61C.19,35.65.27,36.59.27,36.84Z"/><path class="cls-7" d="M7.19,78.58c-.13,0-1.79.72-1.83.94a2.77,2.77,0,0,0,.08,1.16l3.14-.3a33.66,33.66,0,0,1,1.59-3.19c.49-.71.8-1.19.72-1.26s-.79-1.65-1.31-1.6S7.19,78.58,7.19,78.58Z"/><path class="cls-7" d="M10.25,79.8l.44-.18.2-3.59L9.76,77.37Z"/><path class="cls-8" d="M8.47,74A9.41,9.41,0,0,0,7.16,77c-.2.84-.18,1.62-.67,2-.3.23.42.32,1.22,0s1-2,1.84-2.73a2.17,2.17,0,0,0,.78-1.18C10.12,72.76,8.92,73.57,8.47,74Z"/><path class="cls-8" d="M5.15,37.39c-1.29,0-2.95,1.07-2.9,2.4s.09,7.41,1.56,11.57a27.5,27.5,0,0,1,1.7,7.21c.22,1.57,3.38,3.13,3.65-.94,0-3-.26-16-.26-16S9.26,37.47,5.15,37.39Z"/><path class="cls-8" d="M7.2,55.52a2,2,0,0,0-1.76,2.09c.11,1.79.46,5.8.95,8.6s1.83,6.31,1.74,8.1C8,75.58,8.69,76,9.32,75.72s1-.22.93-2.06.5-6.94.39-8.82-1.48-7-1.48-7.48A1.68,1.68,0,0,0,7.2,55.52Z"/><path class="cls-9" d="M10.22,78.23c-.2.33-1.49,1.88-1.57,2s0,1.07.32,1.07a23.05,23.05,0,0,0,3.61-1c.08-.15-.07-2.46.08-2.92a21.59,21.59,0,0,0,.66-2.68c0-.26-.77-.71-1.21-.74s-1,.59-1.07.64S10.22,78.23,10.22,78.23Z"/><path class="cls-9" d="M13.07,79.76c.06,0,.47,0,.45-.13s-.2-4.95-.2-4.95l-.77,1.14Z"/><path class="cls-3" d="M10.52,73.07a2.21,2.21,0,0,0-.66,1.64c-.18,1.67.28,3.75-.11,4.36-.05.15.57.65,1.2.31a5.6,5.6,0,0,0,.73-.48c0-.41.77-4.86.65-4.86a1,1,0,0,1-.74-.71C11.47,72.86,10.74,72.91,10.52,73.07Z"/><path class="cls-3" d="M7,56.18c-1.2.61-1.35,1.85-.67,3.42A33.89,33.89,0,0,1,8,64.9c.27,1.31,1.18,5.09,1.4,6.54s.35,3.66.35,3.66.61,1.27,1.5.4.53-1.62.53-1.62a5.36,5.36,0,0,1-.26-2.37,55.86,55.86,0,0,0,.34-7.71,30.48,30.48,0,0,0-1.76-6C9.89,57.26,8.45,55.44,7,56.18Z"/><path class="cls-3" d="M7.2,42A58.17,58.17,0,0,0,6,51.23c-.09,4.25-.31,6.18-.27,6.61S6,60.3,7.42,60.39a2.66,2.66,0,0,0,3-2.52,31,31,0,0,1,1.85-7.78,33,33,0,0,0,2.36-9.69c0-2.28-2.46-3.14-3.84-3S7.71,39.15,7.2,42Z"/><path class="cls-10" d="M11.68,31.06H2.58c-.15.41-.56,2.18-.69,2.93a56.44,56.44,0,0,0-.67,6.06c.26,8.2,2.38,12.3,3.17,18.34l6.92-.13c1.17-10.52,3.51-12.13,3.51-19C14.82,35.42,12.19,32.1,11.68,31.06Z"/><path class="cls-11" d="M1.45,37.26c-.12,1.15-.2,2.14-.22,2.61,1.25-.09,3.53-.09,3.53-.09s6.44.19,10.05.41c0-.28,0-.58,0-.89a9.24,9.24,0,0,0-.22-2l-9-.8Z"/><path class="cls-12" d="M6.32,14a8.44,8.44,0,0,1,1.77-.76,9.59,9.59,0,0,0,1.89.13l.29,1.43L7.59,16.67l-2.14-.42Z"/><path class="cls-3" d="M10.75,24.38V15.2A1.18,1.18,0,0,1,10,14.05a18.21,18.21,0,0,1,.1-2.65S9.84,9.49,8.37,9.49A2.13,2.13,0,0,0,6,11.58s.59,3,.15,3.65A7.62,7.62,0,0,1,4,16.64v7.74Z"/><path class="cls-8" d="M5,16.19a8.71,8.71,0,0,0,1,1l.13-1.57s.25-1.48,1.13-1.5,1.71-.26,1.78.13a9.57,9.57,0,0,1-1,3.12c-.53,1.25,1.06-.67,1.06-.67a19.47,19.47,0,0,0,1-2.12,8.36,8.36,0,0,1,0-3.59,14.14,14.14,0,0,1,.29-1.48s-1.77.18-2.58.18c0,0-1.89,1-1.89,1.69s.72,3.44,0,4a4.36,4.36,0,0,1-1,.53A2.11,2.11,0,0,0,5,16.19Z"/><path class="cls-8" d="M12.51,17.6c-.08,0-4.75-.15-4.75-.15l.83-.12h3Z"/><path class="cls-8" d="M6.39,17.25c.05.05.29.47.46.48s.49-.43.49-.43l-.49.2Z"/><path class="cls-8" d="M3.78,17.36l2.43.05-.59-.16-1.84-.12Z"/><path class="cls-13" d="M6.16,14.72a.17.17,0,0,1-.15.14.12.12,0,0,1-.12-.14.16.16,0,0,1,.16-.14A.11.11,0,0,1,6.16,14.72Z"/><path class="cls-14" d="M6.16,14.73a.15.15,0,0,1-.15.12.1.1,0,0,1-.11-.12.15.15,0,0,1,.15-.13A.11.11,0,0,1,6.16,14.73Z"/><path class="cls-15" d="M6.14,14.73a.13.13,0,0,1-.12.11.09.09,0,0,1-.09-.11.13.13,0,0,1,.12-.1A.09.09,0,0,1,6.14,14.73Z"/><path class="cls-13" d="M6.23,15a.16.16,0,0,1-.15.13A.11.11,0,0,1,6,15a.16.16,0,0,1,.16-.14A.11.11,0,0,1,6.23,15Z"/><path class="cls-14" d="M6.23,15a.16.16,0,0,1-.15.13A.11.11,0,0,1,6,15a.16.16,0,0,1,.15-.13A.11.11,0,0,1,6.23,15Z"/><path class="cls-15" d="M6.21,15a.12.12,0,0,1-.12.1A.08.08,0,0,1,6,15a.12.12,0,0,1,.12-.1A.08.08,0,0,1,6.21,15Z"/><path class="cls-13" d="M6.37,15.18a.16.16,0,0,1-.16.14.12.12,0,0,1-.12-.14A.19.19,0,0,1,6.25,15,.12.12,0,0,1,6.37,15.18Z"/><path class="cls-14" d="M6.36,15.19a.15.15,0,0,1-.15.13.1.1,0,0,1-.1-.13.15.15,0,0,1,.14-.13A.1.1,0,0,1,6.36,15.19Z"/><path class="cls-15" d="M6.34,15.2a.12.12,0,0,1-.12.1.08.08,0,0,1-.08-.1.12.12,0,0,1,.12-.11A.09.09,0,0,1,6.34,15.2Z"/><path class="cls-13" d="M6.55,15.35a.16.16,0,0,1-.16.14.12.12,0,0,1-.12-.14.18.18,0,0,1,.16-.13A.11.11,0,0,1,6.55,15.35Z"/><path class="cls-14" d="M6.54,15.36a.15.15,0,0,1-.14.13.1.1,0,0,1-.11-.13.15.15,0,0,1,.15-.13A.1.1,0,0,1,6.54,15.36Z"/><path class="cls-15" d="M6.52,15.37a.12.12,0,0,1-.12.1.08.08,0,0,1-.08-.1.13.13,0,0,1,.12-.11A.09.09,0,0,1,6.52,15.37Z"/><path class="cls-13" d="M6.74,15.5a.16.16,0,0,1-.16.14.11.11,0,0,1-.11-.14.16.16,0,0,1,.16-.13A.11.11,0,0,1,6.74,15.5Z"/><path class="cls-14" d="M6.74,15.51a.16.16,0,0,1-.15.13.11.11,0,0,1-.11-.13.16.16,0,0,1,.15-.13A.11.11,0,0,1,6.74,15.51Z"/><path class="cls-15" d="M6.72,15.52a.13.13,0,0,1-.12.1.08.08,0,0,1-.09-.1.12.12,0,0,1,.12-.1A.08.08,0,0,1,6.72,15.52Z"/><path class="cls-13" d="M6.94,15.62a.16.16,0,0,1-.16.14.11.11,0,0,1-.11-.14.16.16,0,0,1,.15-.13A.11.11,0,0,1,6.94,15.62Z"/><path class="cls-14" d="M6.94,15.63a.17.17,0,0,1-.15.13.11.11,0,0,1-.11-.13.15.15,0,0,1,.15-.13A.11.11,0,0,1,6.94,15.63Z"/><path class="cls-15" d="M6.92,15.64a.14.14,0,0,1-.12.1.09.09,0,0,1-.09-.1.13.13,0,0,1,.12-.11C6.89,15.53,6.92,15.58,6.92,15.64Z"/><path class="cls-13" d="M7.17,15.73a.17.17,0,0,1-.16.14.12.12,0,0,1-.12-.14.18.18,0,0,1,.16-.14A.12.12,0,0,1,7.17,15.73Z"/><path class="cls-14" d="M7.16,15.74a.14.14,0,0,1-.15.12.1.1,0,0,1-.11-.12.16.16,0,0,1,.15-.13A.1.1,0,0,1,7.16,15.74Z"/><path class="cls-15" d="M7.14,15.74a.13.13,0,0,1-.12.11.1.1,0,0,1-.09-.11.14.14,0,0,1,.13-.1A.08.08,0,0,1,7.14,15.74Z"/><path class="cls-13" d="M7.43,15.78a.16.16,0,0,1-.16.14.11.11,0,0,1-.11-.14.16.16,0,0,1,.16-.13A.11.11,0,0,1,7.43,15.78Z"/><path class="cls-14" d="M7.43,15.79a.16.16,0,0,1-.15.13.11.11,0,0,1-.11-.13.16.16,0,0,1,.15-.13A.11.11,0,0,1,7.43,15.79Z"/><path class="cls-15" d="M7.41,15.8a.12.12,0,0,1-.12.1.08.08,0,0,1-.09-.1.13.13,0,0,1,.12-.11A.09.09,0,0,1,7.41,15.8Z"/><path class="cls-13" d="M7.67,15.8a.16.16,0,0,1-.15.14.12.12,0,0,1-.12-.14.16.16,0,0,1,.16-.13A.11.11,0,0,1,7.67,15.8Z"/><path class="cls-14" d="M7.67,15.81a.16.16,0,0,1-.15.13.11.11,0,0,1-.11-.13.16.16,0,0,1,.15-.13A.11.11,0,0,1,7.67,15.81Z"/><path class="cls-15" d="M7.65,15.82a.13.13,0,0,1-.12.1.09.09,0,0,1-.09-.1.13.13,0,0,1,.12-.11A.09.09,0,0,1,7.65,15.82Z"/><path class="cls-13" d="M7.92,15.81a.17.17,0,0,1-.16.14.12.12,0,0,1-.12-.14.18.18,0,0,1,.16-.14A.12.12,0,0,1,7.92,15.81Z"/><path class="cls-14" d="M7.91,15.82a.16.16,0,0,1-.15.13.11.11,0,0,1-.11-.13.17.17,0,0,1,.15-.13A.11.11,0,0,1,7.91,15.82Z"/><path class="cls-15" d="M7.89,15.83a.13.13,0,0,1-.12.1.09.09,0,0,1-.09-.1.14.14,0,0,1,.12-.11A.09.09,0,0,1,7.89,15.83Z"/><path class="cls-13" d="M9.77,14.72a.12.12,0,0,0,.12.14.17.17,0,0,0,.16-.14.12.12,0,0,0-.12-.14A.18.18,0,0,0,9.77,14.72Z"/><path class="cls-14" d="M9.78,14.73a.1.1,0,0,0,.11.12.16.16,0,0,0,.15-.12.11.11,0,0,0-.11-.13A.14.14,0,0,0,9.78,14.73Z"/><path class="cls-15" d="M9.79,14.73c0,.06,0,.11.09.11a.13.13,0,0,0,.12-.11.09.09,0,0,0-.09-.1A.14.14,0,0,0,9.79,14.73Z"/><path class="cls-13" d="M9.63,15a.11.11,0,0,0,.12.13A.16.16,0,0,0,9.9,15a.11.11,0,0,0-.11-.14A.16.16,0,0,0,9.63,15Z"/><path class="cls-14" d="M9.63,15a.11.11,0,0,0,.11.13A.16.16,0,0,0,9.89,15a.11.11,0,0,0-.11-.13A.16.16,0,0,0,9.63,15Z"/><path class="cls-15" d="M9.65,15a.08.08,0,0,0,.09.1.12.12,0,0,0,.12-.1.08.08,0,0,0-.09-.1A.12.12,0,0,0,9.65,15Z"/><path class="cls-13" d="M9.43,15.18a.11.11,0,0,0,.11.14.16.16,0,0,0,.16-.14A.12.12,0,0,0,9.58,15,.17.17,0,0,0,9.43,15.18Z"/><path class="cls-14" d="M9.43,15.19a.11.11,0,0,0,.11.13.16.16,0,0,0,.15-.13.11.11,0,0,0-.11-.13A.16.16,0,0,0,9.43,15.19Z"/><path class="cls-15" d="M9.45,15.2a.08.08,0,0,0,.08.1.12.12,0,0,0,.12-.1.09.09,0,0,0-.08-.11A.12.12,0,0,0,9.45,15.2Z"/><path class="cls-13" d="M9.19,15.35a.12.12,0,0,0,.12.14.18.18,0,0,0,.16-.14.11.11,0,0,0-.12-.13A.17.17,0,0,0,9.19,15.35Z"/><path class="cls-14" d="M9.19,15.36a.11.11,0,0,0,.11.13.15.15,0,0,0,.15-.13.11.11,0,0,0-.11-.13A.17.17,0,0,0,9.19,15.36Z"/><path class="cls-15" d="M9.21,15.37a.09.09,0,0,0,.09.1.13.13,0,0,0,.12-.1.09.09,0,0,0-.09-.11A.13.13,0,0,0,9.21,15.37Z"/><path class="cls-13" d="M9,15.5a.12.12,0,0,0,.12.14.18.18,0,0,0,.16-.14.11.11,0,0,0-.12-.13A.16.16,0,0,0,9,15.5Z"/><path class="cls-14" d="M9,15.51a.11.11,0,0,0,.11.13.15.15,0,0,0,.15-.13.11.11,0,0,0-.11-.13A.17.17,0,0,0,9,15.51Z"/><path class="cls-15" d="M9,15.52a.08.08,0,0,0,.09.1.12.12,0,0,0,.12-.1.08.08,0,0,0-.09-.1A.12.12,0,0,0,9,15.52Z"/><path class="cls-13" d="M8.72,15.62a.11.11,0,0,0,.11.14A.16.16,0,0,0,9,15.62a.11.11,0,0,0-.11-.13A.16.16,0,0,0,8.72,15.62Z"/><path class="cls-14" d="M8.72,15.63a.11.11,0,0,0,.11.13A.16.16,0,0,0,9,15.63a.11.11,0,0,0-.11-.13A.16.16,0,0,0,8.72,15.63Z"/><path class="cls-15" d="M8.74,15.64a.09.09,0,0,0,.09.1.14.14,0,0,0,.12-.1c0-.06,0-.11-.09-.11A.13.13,0,0,0,8.74,15.64Z"/><path class="cls-13" d="M8.46,15.73a.11.11,0,0,0,.11.14.16.16,0,0,0,.16-.14.12.12,0,0,0-.12-.14A.16.16,0,0,0,8.46,15.73Z"/><path class="cls-14" d="M8.46,15.74a.1.1,0,0,0,.11.12.15.15,0,0,0,.15-.12.11.11,0,0,0-.11-.13A.15.15,0,0,0,8.46,15.74Z"/><path class="cls-15" d="M8.48,15.74a.09.09,0,0,0,.08.11.12.12,0,0,0,.12-.11.08.08,0,0,0-.08-.1A.12.12,0,0,0,8.48,15.74Z"/><path class="cls-13" d="M8.18,15.78a.11.11,0,0,0,.11.14.16.16,0,0,0,.16-.14.11.11,0,0,0-.12-.13A.16.16,0,0,0,8.18,15.78Z"/><path class="cls-14" d="M8.18,15.79a.11.11,0,0,0,.11.13.17.17,0,0,0,.15-.13.11.11,0,0,0-.11-.13A.16.16,0,0,0,8.18,15.79Z"/><path class="cls-15" d="M8.19,15.8a.09.09,0,0,0,.09.1.12.12,0,0,0,.12-.1.09.09,0,0,0-.08-.11A.14.14,0,0,0,8.19,15.8Z"/><path class="cls-13" d="M7.93,15.8a.11.11,0,0,0,.11.14.16.16,0,0,0,.16-.14.11.11,0,0,0-.11-.13A.16.16,0,0,0,7.93,15.8Z"/><path class="cls-14" d="M7.93,15.81a.11.11,0,0,0,.11.13.16.16,0,0,0,.15-.13.11.11,0,0,0-.11-.13A.16.16,0,0,0,7.93,15.81Z"/><path class="cls-15" d="M8,15.82a.09.09,0,0,0,.09.1.14.14,0,0,0,.12-.1c0-.06,0-.11-.09-.11A.13.13,0,0,0,8,15.82Z"/><path class="cls-12" d="M10.75,15.2a1.19,1.19,0,0,1-.64-.67,29.33,29.33,0,0,1-3.73,3.6c-.18.07-.44-1.74-.3-2.82A8.41,8.41,0,0,1,4,16.64v7.71l0,0H7.31l1.21-.19,2.23-2.55Z"/><path class="cls-16" d="M6.57,18.13s2.24-1.88,2.24-1.88l.67,1.1S8,19.18,8,19.22s-1.45,1.72-1.67,1.47c0,0,2.47-3.58,2.28-3.46S6.57,18.13,6.57,18.13Z"/><path class="cls-16" d="M4.92,20.41s.58-2.89.63-2.89a8.28,8.28,0,0,1,.59.61l-.34-2-.56.71-.16.93Z"/><path class="cls-16" d="M6.14,18.13c0,.08-.31,1.81-.31,1.81s-1.07,2.72-1.09,2.61.82-2.58.84-2.65Z"/><path class="cls-17" d="M.81,39.18s3.64,0,3.64,0l.61-2,.7,2s8.12.28,9.23,0c-.4-7.43-3.74-8.39-3.74-10.49,0-1,1.87-5.07,3.81-7,.71-1.57,0-4.62-.89-5.09s-2.86-.71-3.34-1.59a47.57,47.57,0,0,1-6,7.56s0-2.63.09-3.72a22.5,22.5,0,0,1,.91-3.36A21.71,21.71,0,0,1,3,16.71,26.23,26.23,0,0,1,1.71,20.3c-.6.8-1.24,1-1.26,2.67A6.38,6.38,0,0,0,2,25.32a33.71,33.71,0,0,1,.43,4.33C2.39,31.33.52,32.93.81,39.18Z"/><path class="cls-18" d="M4,26s.37,3.23.35,4.2c0,1.37.48,6.3.48,6.3.1.35-1-5.47-1.09-6.86A17.52,17.52,0,0,1,4,26Z"/><path class="cls-6" d="M9.27,18.47l1.1.29,1.31-3.13c-.35-.18-1-1-1.42-1.05a36,36,0,0,1-5.43,7.86s.21-2.56.25-3.65a37.68,37.68,0,0,1,.92-4c-.34.2-.87,1.2-1.41,1.42l-.67,1.66.45.39-.76.59.54,5.42L10,19.57Z"/><path class="cls-18" d="M9.6,25.42c1.44-.41,1.75-2.37.88-2.93A3,3,0,0,1,7.78,24a19.05,19.05,0,0,1-6-.42A3.75,3.75,0,0,1,.45,23,6.38,6.38,0,0,0,2,25.32,63.29,63.29,0,0,0,9.6,25.42Z"/><path class="cls-6" d="M12.51,17.94s-.9,1.49-.3,2.09c1.45,1.44,5.65,6,5.91,6.23a2.46,2.46,0,0,0,2.47-.08c.77-.66-.38-2.15-.38-2.15s-3.33-4.83-4.82-6.71a5.87,5.87,0,0,0-1.62-.89C13.46,16.27,13.11,17.11,12.51,17.94Z"/><path class="cls-3" d="M15.61,34c-.09,0-2.15-1.51-2.15-1.51a6.75,6.75,0,0,0-1.28-.38,3.17,3.17,0,0,0-1.49.33c-.11.14.11.22.21.22a4.17,4.17,0,0,1,1.83,0c.12.07.26.24.2.23s-2-.08-2.39.36c-.22.19.42.28.42.28s-.29.47.31.46,1.8,0,1.8,0l.07.17a9.86,9.86,0,0,0-1.43.33c-.42.17-.1.36-.1.36a8.53,8.53,0,0,1,1.5-.07,13.76,13.76,0,0,0,1.56.66c.54.15,1.24.35,1.63,0S15.61,34,15.61,34Z"/><path class="cls-3" d="M16.68,31.58a8.69,8.69,0,0,1-.9,2.18c-.41.57-.63,1.22-.28,1.6s1,.13,1.57-.52a24.26,24.26,0,0,0,1.81-3.26Z"/><path class="cls-6" d="M19.89,24.28c-1-.32-1.82.88-1.86,1.12-.27,1.87-1.76,7.62-2.41,8.45l1.67,1.24c.6-.62,3.56-6.75,3.8-8.58A2,2,0,0,0,19.89,24.28Z"/><polygon class="cls-5" points="15.69 33.69 15.85 33.57 17.31 34.62 17.14 34.89 15.69 33.69"/><path class="cls-19" d="M11.14,7.87,11,9.74A.36.36,0,0,0,11,10a.24.24,0,0,0,.31,0,.63.63,0,0,0,.23-.23,3.21,3.21,0,0,0,.53-1.61,1,1,0,0,0-.17-.71.46.46,0,0,0-.65-.1A.66.66,0,0,0,11.14,7.87Z"/><path class="cls-3" d="M7.4,2.16c-.23,0-2.64.23-3,1.52a19.74,19.74,0,0,0,.14,5.78c.18.79.73,2.87,2.15,3.71A2.53,2.53,0,0,0,8,13.64a2.3,2.3,0,0,0,1.36-.52,7.24,7.24,0,0,0,1.93-3.93A19.33,19.33,0,0,0,11,3.41C10.6,2.16,8.18,2.1,8,2.14Z"/><path class="cls-20" d="M9.13,7.18c0,.09-.07.56.1.74,0,0,1,.1,1,.1a.78.78,0,0,0,.54-.23c.16-.22.13-.51.09-.51a6.67,6.67,0,0,0-.71-.44c-.07,0-.71.12-.75.14Z"/><path class="cls-21" d="M10.52,7.52A.59.59,0,0,1,10.3,8,.55.55,0,0,1,10,8,.57.57,0,0,1,9.57,8a.56.56,0,0,1-.19-.43A.57.57,0,0,1,10,7,.58.58,0,0,1,10.52,7.52Z"/><path class="cls-22" d="M8.81,7.9a1.7,1.7,0,0,1,.35-1,3.62,3.62,0,0,1,1.39-.23,3.05,3.05,0,0,1,.53.76c0,.1-.19,0-.19,0A.9.9,0,0,0,10,7.16c-.57.09-.76.14-.86.25S8.81,7.9,8.81,7.9Z"/><path class="cls-23" d="M8.82,7.93a1.92,1.92,0,0,1,.38,0A6.23,6.23,0,0,0,10,8c.25,0,.72,0,.82-.53,0,0,.09,0,.09,0a.76.76,0,0,1-.85.6,4.74,4.74,0,0,1-.91-.17Z"/><path class="cls-2" d="M8.82,7.93s.42-.51.58-.58a2.38,2.38,0,0,1,1.1,0c.28.1.42.38.77.2a1.42,1.42,0,0,1-.59-.39,2.16,2.16,0,0,0-1.4,0A2,2,0,0,0,8.82,7.93Z"/><path class="cls-20" d="M6.55,7.18c0,.09.06.56-.11.74,0,0-1,.1-1,.1a.8.8,0,0,1-.55-.23c-.15-.22-.13-.51-.09-.51s.64-.45.71-.44.71.12.75.14Z"/><path class="cls-21" d="M5.16,7.52A.59.59,0,0,0,5.37,8,.55.55,0,0,0,5.71,8,.55.55,0,0,0,6.1,8a.57.57,0,0,0,.2-.43A.58.58,0,0,0,5.73,7,.57.57,0,0,0,5.16,7.52Z"/><path class="cls-22" d="M6.87,7.9a1.78,1.78,0,0,0-.35-1,3.67,3.67,0,0,0-1.4-.23,3.34,3.34,0,0,0-.53.76c0,.1.2,0,.2,0a.87.87,0,0,1,.85-.29c.58.09.77.14.86.25S6.87,7.9,6.87,7.9Z"/><path class="cls-23" d="M6.86,7.93a1.92,1.92,0,0,0-.38,0A6.43,6.43,0,0,1,5.63,8c-.25,0-.72,0-.82-.53,0,0-.09,0-.09,0a.77.77,0,0,0,.86.6,4.74,4.74,0,0,0,.91-.17Z"/><path class="cls-2" d="M6.86,7.93s-.42-.51-.59-.58a2.33,2.33,0,0,0-1.09,0c-.29.1-.42.38-.78.2A1.42,1.42,0,0,0,5,7.15a2.16,2.16,0,0,1,1.4,0A2,2,0,0,1,6.86,7.93Z"/><path class="cls-2" d="M6.77,6.14c0,.05-.1.36-.21.34A4.9,4.9,0,0,0,4.93,6a2.27,2.27,0,0,0-1.13.54S4.36,5.71,5,5.71A7.48,7.48,0,0,1,6.77,6.14Z"/><path class="cls-2" d="M8.7,6.14c0,.05.1.36.21.34A4.82,4.82,0,0,1,10.53,6a2.27,2.27,0,0,1,1.14.54s-.56-.83-1.18-.83A7.5,7.5,0,0,0,8.7,6.14Z"/><path class="cls-24" d="M7.15,6.67v0a.39.39,0,0,1,0,.09c0,.07.07.17.11.29a1.72,1.72,0,0,1,.07.21l.06.23c0,.08,0,.16,0,.25s0,.17,0,.26l0,.26c0,.09,0,.18,0,.26v.12c0,.05,0,.09,0,.12s0,.15,0,.21a1.89,1.89,0,0,1-.1.31.34.34,0,0,1,0,.08l0,0a.4.4,0,0,0,0-.12A2.86,2.86,0,0,0,7.44,9a1.25,1.25,0,0,0,0-.21s0-.07,0-.11a.13.13,0,0,0,0-.06V8.54a2.29,2.29,0,0,0,0-.25l0-.25a2.34,2.34,0,0,1,0-.26l0-.25,0-.23,0-.21a2.73,2.73,0,0,1-.06-.31.31.31,0,0,1,0-.08Z"/><path class="cls-24" d="M7.17,10l.06,0,.17.06a1.79,1.79,0,0,1,.22.13l0,0h0l0,0h0a.25.25,0,0,0,.12,0,.49.49,0,0,0,.24,0l.1-.08.09-.07L8.43,10h.05l0,0-.12.13-.08.08,0,0a.15.15,0,0,1-.06.05L8,10.38l-.16,0a.33.33,0,0,1-.17,0l-.07,0v0h0l0,0-.1-.09-.09-.07L7.22,10Z"/><path class="cls-24" d="M7.17,9.56l0,0s0,.06-.06.1L7,9.83,7,9.9A.25.25,0,0,0,7,10v0H7v0H7l0,0,.05,0,.06,0,.1.06,0,0H7.11A.27.27,0,0,1,7,10.16l0,0s0,0,0-.05v0h0v0s0,0,0,0a.2.2,0,0,1,0-.11.08.08,0,0,1,0,0l0,0L7,9.71,7,9.65a.35.35,0,0,1,.09-.06Z"/><path class="cls-24" d="M8.61,9.62l0,0,.09.07a.56.56,0,0,1,.1.15s0,.06,0,.1v0h0v0s0,0,0,0a.21.21,0,0,1-.08.1l-.09.05-.15,0H8.37l0,0,0,0a.1.1,0,0,1,.05,0l.13-.07s.05,0,.06,0l0,0h0v0h0V9.89a.5.5,0,0,0-.05-.13l0-.1Z"/><path class="cls-25" d="M8,11.1,6.34,11S6.89,12.28,8,12.18a2.08,2.08,0,0,0,1.56-1.27A4.15,4.15,0,0,0,8,11.1Z"/><path class="cls-26" d="M6.91,11.65s0-.53,0-.53.76.07,1.15.05l1-.05,0,.54s-.19.47-1.08.42S6.91,11.65,6.91,11.65Z"/><path class="cls-27" d="M6.05,10.93s.78,1.67,2,1.62,1.82-1.77,1.82-1.77l-.42.11S8.88,12,7.94,12A2,2,0,0,1,6.44,11Z"/><path class="cls-28" d="M6.05,10.93a2.81,2.81,0,0,0,1.38.32,1,1,0,0,0,1,0,3.45,3.45,0,0,0,1.48-.48,8.91,8.91,0,0,0-1.46-.09A1.55,1.55,0,0,0,8,11a1,1,0,0,0-.58-.3C7.09,10.74,6.05,10.93,6.05,10.93Z"/><path class="cls-1" d="M14.15,8.73a3.55,3.55,0,0,1-.07-2.29,5,5,0,0,0-.78-2.35c-.09-.17-.12-2-1.65-2.61a1,1,0,0,1-.05-.17.84.84,0,0,0-.27,0,1.43,1.43,0,0,0-.71.62,2.07,2.07,0,0,0-.44,1.7,2.13,2.13,0,0,1,1,1.26c.31,1.12-.35,2.38.12,3.45a6.61,6.61,0,0,1,.68,1.32c.15.78-.51,1.47-.69,2.25a2,2,0,0,0,.13,1.19l0,0s.42,1,1.91.05a.85.85,0,0,0,1.27-.78c-.07,0-.75.83-.92-.45-.07-.66.83-1.07.83-2.18A1.61,1.61,0,0,0,14.15,8.73Z"/><path class="cls-29" d="M3.6,4.44l-.09-.1c-.61.33-.33,1.42-.56,2a2.83,2.83,0,0,0-.1,1.89,5.26,5.26,0,0,0,.26.59,3.59,3.59,0,0,1,.24.53,3.74,3.74,0,0,1-.55,3l-.08.14a5,5,0,0,0-.34.65l.11,0,0,0a6.45,6.45,0,0,1,.31-.58s0-.09.08-.14a3.86,3.86,0,0,0,.56-3.12c-.07-.18-.16-.36-.24-.53A3.33,3.33,0,0,1,3,8.23a2.79,2.79,0,0,1,.1-1.81C3.29,5.82,3,4.75,3.6,4.44Z"/><path class="cls-29" d="M13.41,12.73a.06.06,0,0,0-.07,0,.28.28,0,0,1-.18.17.36.36,0,0,1-.32,0,.57.57,0,0,1-.22-.55,1.28,1.28,0,0,1,.31-.6l.17-.19a3.37,3.37,0,0,0,.29-.35,1.94,1.94,0,0,0-.13-2.32L13,8.67a1.25,1.25,0,0,1-.46-.7,1.2,1.2,0,0,1,.32-.74,3.15,3.15,0,0,0,.22-.33,2,2,0,0,0,0-1.67,4.9,4.9,0,0,0-.93-1.39c-.44-.5-.91-1-1.39-1.45l-.09.09c.48.46.95.94,1.38,1.44A4.83,4.83,0,0,1,13,5.28a1.88,1.88,0,0,1,0,1.56c-.06.1-.14.21-.21.31a1.26,1.26,0,0,0-.34.83,1.22,1.22,0,0,0,.5.78l.21.22a1.82,1.82,0,0,1,.13,2.17c-.09.12-.19.23-.28.33l-.18.2a1.41,1.41,0,0,0-.33.66.69.69,0,0,0,.27.68.54.54,0,0,0,.43,0l.07,0a.81.81,0,0,1-.22.3l.28-.16h0a.81.81,0,0,0,.12-.37S13.44,12.74,13.41,12.73Z"/><path class="cls-1" d="M11.64,1.45c-.06-.23-.31-1.84-3.27-1.36,0,0-4-.71-5.36,2.19A3.79,3.79,0,0,0,3,4a.3.3,0,0,0,0,.08,1.39,1.39,0,0,0,.6,1.37,2.09,2.09,0,0,0-.17.59.72.72,0,0,0,.18.57,1.11,1.11,0,0,0,.67.2,2.87,2.87,0,0,0,1.72-.22c.56-.34.86-.75,1.35-1.08s1.39-.43,2-.77A4.61,4.61,0,0,0,11.64,1.45Z"/><path class="cls-29" d="M11.15,1.9a2.9,2.9,0,0,0-1.4.53,6.7,6.7,0,0,1-.7.37,5,5,0,0,1-1.75.29H7a8.09,8.09,0,0,0-1.47.11,2.65,2.65,0,0,0-1.6.87,1.67,1.67,0,0,0-.33,1.34s.09.07.11.06A1.66,1.66,0,0,1,4,4.15,2.55,2.55,0,0,1,5.5,3.32,7.91,7.91,0,0,1,7,3.22H7.3a4.83,4.83,0,0,0,1.8-.3,6,6,0,0,0,.71-.37A3.17,3.17,0,0,1,11,2h.5l0-.12C11.38,1.89,11.16,1.9,11.15,1.9Z"/><path class="cls-29" d="M11.46,1a2.24,2.24,0,0,0-.63,0,2.63,2.63,0,0,0-1.07.38l-.22.12a5.05,5.05,0,0,1-.77.39,4.51,4.51,0,0,1-1.91.1A5.93,5.93,0,0,0,5.23,2,2.94,2.94,0,0,0,3.4,3.13,2.82,2.82,0,0,0,3,3.9.5.5,0,0,0,3,4a.3.3,0,0,0,0,.08v0a2.83,2.83,0,0,1,2.2-2.07,6,6,0,0,1,1.59,0,4.69,4.69,0,0,0,2-.12,3.87,3.87,0,0,0,.79-.39l.21-.12a2.45,2.45,0,0,1,1-.37,2.18,2.18,0,0,1,.69,0A1,1,0,0,0,11.46,1Z"/><path class="cls-29" d="M8,.24A5.73,5.73,0,0,1,6.81.72a5.72,5.72,0,0,1-.68.12A5.1,5.1,0,0,0,5.35,1,4.15,4.15,0,0,0,2.94,2.64a2.56,2.56,0,0,0,0,.39A3.68,3.68,0,0,1,5.38,1.1,6.75,6.75,0,0,1,6.14,1a5.69,5.69,0,0,0,.7-.12A6.26,6.26,0,0,0,8,.36c.24-.11.47-.23.72-.32l-.17,0h0l-.18,0h0Z"/><polygon class="cls-30" points="9.8 0.02 9.79 0.02 9.79 0.02 9.8 0.02"/><path class="cls-29" d="M11.34,2.54a3.11,3.11,0,0,0-1.25.55,4.49,4.49,0,0,1-.59.33,5.82,5.82,0,0,1-1.08.32,3.84,3.84,0,0,0-1.57.59,3.64,3.64,0,0,0-.46.42,2.67,2.67,0,0,1-.6.52,3,3,0,0,1-.88.28h0A2.86,2.86,0,0,0,4,5.86a1.13,1.13,0,0,0-.45.5.53.53,0,0,0,.08.17A.92.92,0,0,1,4,6a2.78,2.78,0,0,1,.88-.3h0a2.93,2.93,0,0,0,.91-.29,2.73,2.73,0,0,0,.63-.54,4.38,4.38,0,0,1,.45-.41,3.67,3.67,0,0,1,1.52-.57,6,6,0,0,0,1.1-.32,4.11,4.11,0,0,0,.6-.34,3.2,3.2,0,0,1,1.13-.52Z"/><path class="cls-1" d="M3.49,7.64A.65.65,0,0,1,3.44,7a1.41,1.41,0,0,1,.37-.58,2,2,0,0,1,.94-.35.69.69,0,0,1,.35,0,.25.25,0,0,1,.2.26c-.21,0,0,.13-.13.31s-.31.06-.66.39-.08,1.12-.27,1.22S3.63,7.8,3.49,7.64Z"/><path class="cls-1" d="M4.08,7.08a11.93,11.93,0,0,1,.59,2.39c0,.47,0,2.87-.52,3.44s-.74-.25-.74-.25a6.13,6.13,0,0,0,.67-2.75,12.56,12.56,0,0,0-.67-2.34C3.26,7.32,4,7,4.08,7.08Z"/><path class="cls-31" d="M6.32,14,5.8,16.13S4.1,18.24,4.1,18.2s1.24-2.77,1.32-2.88C5.69,15,6.32,14,6.32,14Z"/><path class="cls-31" d="M10,13.39S8.72,16,8.63,16.13,9.78,18.2,9.78,18.2l1.09-3.74Z"/><polygon class="cls-16" points="4.1 18.2 5.38 17.3 5.8 16.13 4.1 18.2"/></svg>